<?xml version="1.0" encoding="UTF-8"?><svg id="Layer_1" xmlns="http://www.w3.org/2000/svg" viewBox="0 0 1800 403.6174"><path d="M1.8527,185.0765l-1.2386.1318c-.448,5.7188-.6588,11.4904-.6061,17.3408.6588,107.9459,86.2302,195.2565,192.9637,199.605,2.1874.079,4.4538.1055,6.773.1055,17.499,0,38.635-1.9766,60.9304-8.5914L1.8527,185.0765Z" fill="#6c6fa9"/><path d="M1438.5814,80.446c-9.9881,13.1243-18.4214,27.5135-24.9835,42.9042-32.9161,8.9604-95.1906,16.7875-173.5936,23.3497l-432.6531,109.1317.7379.3163c63.1178-1.4758,128.581-2.3719,192.4893-2.3719,176.5189,0,341.2049,6.773,412.5186,26.354,30.4653,72.5789,102.1216,123.4947,185.5846,123.4947h1.2651c5.7452-.0527,11.4112-.3163,17.0246-.8169l-178.3899-322.3618Z" fill="#40b8b2"/><path d="M1475.2898,43.3475c-13.7832,10.7261-26.1167,23.2179-36.711,37.1064l178.3899,322.3353c93.6093-8.4069,168.6127-80.854,181.1835-172.9874l-322.8624-186.4543Z" fill="#dedb2e"/><path d="M1240.0148,146.6972c-176.5188,14.7583-434.9986,23.0597-625.1425,23.1915l192.4894,85.9402,432.6531-109.1317Z" fill="#dedb2e"/><path d="M201.2626-.0073h-1.2386C128.7629.4406,66.3567,37.8897,30.937,93.9972l365.7667,59.5864c-4.7964-19.7391-12.5445-38.3186-22.6908-55.2906-27.4081-52.6289-82.1717-76.6374-82.1717-76.6374C264.5912,7.8988,233.8625-.0073,201.2626-.0073M.7089,184.1542c-.0264.3426-.0527.7116-.0791,1.0542l1.2123-.1318-1.1332-.9224Z" fill="#40b8b2"/><path d="M1598.7317,1.0283h-1.2649c-46.0931.2899-88.444,16.0496-122.177,42.3244l322.8624,186.428c1.2649-9.382,1.8974-18.9485,1.8448-28.6995-.6852-110.7394-90.684-200.0529-201.2653-200.0529" fill="#6c6fa9"/><path d="M30.9343,94.0104C14.1995,120.5225,3.4735,151.2249.7063,184.1673l1.1596.9224,258.8223,208.5652c24.9308-7.3791,51.2848-20.6087,75.6359-43.405,20.5561-18.6323,37.2118-41.3757,48.6758-67.0445,5.7451-1.3968,11.3849-2.7672,16.9983-4.1376,31.3085-7.5899,207.1422-18.237,406.0883-22.9016l-.7379-.3426-192.4894-85.9139s-174.7532-2.0029-215.9444-6.1932c-.6589-3.3997-1.3968-6.7993-2.2137-10.1463L30.9343,94.0104Z" fill="#f3975c"/></svg>