<svg width="830" height="290" viewBox="155 165 830 290" xmlns="http://www.w3.org/2000/svg" xmlns:xlink="http://www.w3.org/1999/xlink" overflow="hidden"><defs><pattern width="10" height="10" patternUnits="userSpaceOnUse" id="djs-grid-pattern-399165" overflow="hidden"><circle cx="0.5" cy="0.5" r="0.5" fill="#CCCCCC"/></pattern></defs><g><g transform="translate(160 330)"><g><rect x="0" y="0" rx="0" ry="0" width="820" height="120" stroke="#22242A" stroke-width="1.5" stroke-linecap="round" stroke-linejoin="round" fill="#FFFFFF" fill-opacity="0.95"/><path d="M30 0 30 120" stroke="#22242A" stroke-width="1.5" stroke-linecap="round" stroke-linejoin="round" fill="none"/><text fill="#22242A" font-family="Arial,Arial" font-weight="400" font-size="12" transform="matrix(-1.83697e-16 -1 1 -1.83697e-16 0 120)"><tspan x="19.5" y="18.6">CESU member</tspan></text></g><rect x="-5" y="-5" rx="4" width="830" height="130" fill="none"/><rect x="0" y="0" width="820" height="120" stroke="#FFFFFF" stroke-width="15" stroke-opacity="0" fill="none"/><rect x="0" y="0" width="820" height="120" stroke="#FFFFFF" stroke-width="15" stroke-opacity="0" fill="none"/><rect x="0" y="0" width="30" height="120" stroke="#FFFFFF" stroke-width="15" stroke-opacity="0" fill="none"/></g><g><g><g transform="translate(922 372)"><g><circle cx="18" cy="18" r="18" stroke="#22242A" stroke-width="4" stroke-linecap="round" stroke-linejoin="round" fill="#FFFFFF" fill-opacity="0.95"/></g><rect x="0" y="0" width="36" height="36" stroke="#FFFFFF" stroke-width="15" stroke-opacity="0" fill="none"/><circle cx="18" cy="18" r="24" fill="none"/></g></g><g><g transform="translate(780 350)"><g><rect x="0" y="0" rx="10" ry="10" width="100" height="80" stroke="#6B3C00" stroke-width="2" stroke-linecap="round" stroke-linejoin="round" fill="#FFE0B2" fill-opacity="0.95"/><text fill="#6B3C00" font-family="Arial,Arial" font-weight="400" font-size="12"><tspan x="13.3333" y="29.2">12.4 Receive </tspan><tspan x="20.6667" y="43.6">settlement </tspan><tspan x="32.3333" y="58">results</tspan></text></g><rect x="0" y="0" width="100" height="80" stroke="#FFFFFF" stroke-width="15" stroke-opacity="0" fill="none"/><rect x="-5" y="-5" rx="14" width="110" height="90" fill="none"/></g></g><g><g><g><defs><marker refX="11" refY="10" markerWidth="10" markerHeight="10" markerUnits="strokeWidth" orient="auto" viewBox="0 0 20 20" id="marker-96imclql83fgzljrwxg2nxhmx" overflow="hidden"><path d="M1 5 11 10 1 15Z" stroke="#22242A" stroke-linecap="round" stroke-linejoin="round" fill="#22242A"/></marker></defs><path d="M880 390 922 390" stroke="#22242A" stroke-width="2" stroke-linecap="round" stroke-linejoin="round" fill="none" marker-end="url(#marker-96imclql83fgzljrwxg2nxhmx)"/></g><path d="M880 390 922 390" stroke="#FFFFFF" stroke-width="15" stroke-opacity="0" fill="none"/><rect x="875" y="385" rx="4" width="52" height="10" fill="none"/></g></g></g></g><g><g transform="translate(160 170)"><g><rect x="0" y="0" rx="0" ry="0" width="820" height="140" stroke="#22242A" stroke-width="1.5" stroke-linecap="round" stroke-linejoin="round" fill="#FFFFFF" fill-opacity="0.95"/><path d="M30 0 30 140" stroke="#22242A" stroke-width="1.5" stroke-linecap="round" stroke-linejoin="round" fill="none"/><text fill="#22242A" font-family="Arial,Arial" font-weight="400" font-size="12" transform="matrix(-1.83697e-16 -1 1 -1.83697e-16 0 140)"><tspan x="29.1667" y="18.6">CESU operator</tspan></text></g><rect x="0" y="0" width="820" height="140" stroke="#FFFFFF" stroke-width="15" stroke-opacity="0" fill="none"/><rect x="0" y="0" width="820" height="140" stroke="#FFFFFF" stroke-width="15" stroke-opacity="0" fill="none"/><rect x="0" y="0" width="30" height="140" stroke="#FFFFFF" stroke-width="15" stroke-opacity="0" fill="none"/><rect x="-5" y="-5" rx="4" width="830" height="150" fill="none"/></g><g><g><g transform="translate(280 190)"><g><rect x="0" y="0" rx="10" ry="10" width="100" height="80" stroke="#6B3C00" stroke-width="2" stroke-linecap="round" stroke-linejoin="round" fill="#FFE0B2" fill-opacity="0.95"/><text fill="#6B3C00" font-family="Arial,Arial" font-weight="400" font-size="12"><tspan x="13.3333" y="29.2">12.1 Execute </tspan><tspan x="8.79167" y="43.6">computation of </tspan><tspan x="17.6667" y="58">transactions</tspan></text></g><rect x="0" y="0" width="100" height="80" stroke="#FFFFFF" stroke-width="15" stroke-opacity="0" fill="none"/><rect x="-5" y="-5" rx="14" width="110" height="90" fill="none"/></g></g><g><g transform="translate(202 212)"><g><circle cx="18" cy="18" r="18" stroke="#22242A" stroke-width="2" stroke-linecap="round" stroke-linejoin="round" fill="#FFFFFF" fill-opacity="0.95"/></g><rect x="0" y="0" width="36" height="36" stroke="#FFFFFF" stroke-width="15" stroke-opacity="0" fill="none"/><circle cx="18" cy="18" r="23" fill="none"/></g></g><g><g transform="translate(415 205)"><g><path d="M25 0 50 25 25 50 0 25Z" stroke="#205022" stroke-width="2" stroke-linecap="round" stroke-linejoin="round" fill="#C8E6C9" fill-opacity="0.95"/><path d="M16 15 23.4286 24.7143 16 34.4286 19.4286 34.4286 25.1429 26.9643 30.8571 34.4286 34.2857 34.4286 26.8571 24.7143 34.2857 15 30.8571 15 25.1429 22.4642 19.4286 15 16 15Z" stroke="#205022" stroke-linecap="round" stroke-linejoin="round" fill="#205022"/></g><rect x="0" y="0" width="50" height="50" stroke="#FFFFFF" stroke-width="15" stroke-opacity="0" fill="none"/><rect x="2" y="2" rx="4" width="46" height="46" fill="none"/></g></g><g><g transform="translate(397 176)"><g><text fill="#205022" font-family="Arial,Arial" font-weight="400" font-size="11"><tspan x="0" y="9.9">Flexibility market </tspan><tspan x="9.76667" y="23.1">participation?</tspan></text></g><rect x="0" y="0" width="85" height="27" stroke="#FFFFFF" stroke-width="15" stroke-opacity="0" fill="none"/><rect x="-5" y="-5" rx="4" width="95" height="37" fill="none"/></g></g><g><g transform="translate(640 190)"><g><rect x="0" y="0" rx="10" ry="10" width="100" height="80" stroke="#6B3C00" stroke-width="2" stroke-linecap="round" stroke-linejoin="round" fill="#FFE0B2" fill-opacity="0.95"/><text fill="#6B3C00" font-family="Arial,Arial" font-weight="400" font-size="12"><tspan x="13.3333" y="29.2">12.3 Execute </tspan><tspan x="8.79167" y="43.6">computation of </tspan><tspan x="9.66667" y="58">final settlement</tspan></text></g><rect x="0" y="0" width="100" height="80" stroke="#FFFFFF" stroke-width="15" stroke-opacity="0" fill="none"/><rect x="-5" y="-5" rx="14" width="110" height="90" fill="none"/></g></g><g><g transform="translate(500 190)"><g><rect x="0" y="0" rx="10" ry="10" width="100" height="80" stroke="#6B3C00" stroke-width="2" stroke-linecap="round" stroke-linejoin="round" fill="#FFE0B2" fill-opacity="0.95"/><text fill="#6B3C00" font-family="Arial,Arial" font-weight="400" font-size="12"><tspan x="13.3333" y="22">12.2 Execute </tspan><tspan x="8.79167" y="36.4">computation of </tspan><tspan x="25.6667" y="50.8">flexibility </tspan><tspan x="8.66667" y="65.2">revenue shares</tspan></text></g><rect x="0" y="0" width="100" height="80" stroke="#FFFFFF" stroke-width="15" stroke-opacity="0" fill="none"/><rect x="-5" y="-5" rx="14" width="110" height="90" fill="none"/></g></g><g><g transform="translate(780 190)"><g><rect x="0" y="0" rx="10" ry="10" width="100" height="80" stroke="#6B3C00" stroke-width="2" stroke-linecap="round" stroke-linejoin="round" fill="#FFE0B2" fill-opacity="0.95"/><text fill="#6B3C00" font-family="Arial,Arial" font-weight="400" font-size="12"><tspan x="21" y="29.2">12.4 Send </tspan><tspan x="20.6667" y="43.6">settlement </tspan><tspan x="32.3333" y="58">results</tspan></text></g><rect x="0" y="0" width="100" height="80" stroke="#FFFFFF" stroke-width="15" stroke-opacity="0" fill="none"/><rect x="-5" y="-5" rx="14" width="110" height="90" fill="none"/></g></g><g><g><g><defs><marker refX="11" refY="10" markerWidth="10" markerHeight="10" markerUnits="strokeWidth" orient="auto" viewBox="0 0 20 20" id="marker-aojzzusdnrkfg9sqn2mt2d9ed" overflow="hidden"><path d="M1 5 11 10 1 15Z" stroke="#22242A" stroke-linecap="round" stroke-linejoin="round" fill="#22242A"/></marker></defs><path d="M740 230 780 230" stroke="#22242A" stroke-width="2" stroke-linecap="round" stroke-linejoin="round" fill="none" marker-end="url(#marker-aojzzusdnrkfg9sqn2mt2d9ed)"/></g><path d="M740 230 780 230" stroke="#FFFFFF" stroke-width="15" stroke-opacity="0" fill="none"/><rect x="735" y="225" rx="4" width="50" height="10" fill="none"/></g></g><g><g><g><defs><marker refX="11" refY="10" markerWidth="10" markerHeight="10" markerUnits="strokeWidth" orient="auto" viewBox="0 0 20 20" id="marker-dj97fass6p3ysqficn52hxj2o" overflow="hidden"><path d="M1 5 11 10 1 15Z" stroke="#22242A" stroke-linecap="round" stroke-linejoin="round" fill="#22242A"/></marker></defs><path d="M600 230 640 230" stroke="#22242A" stroke-width="2" stroke-linecap="round" stroke-linejoin="round" fill="none" marker-end="url(#marker-dj97fass6p3ysqficn52hxj2o)"/></g><path d="M600 230 640 230" stroke="#FFFFFF" stroke-width="15" stroke-opacity="0" fill="none"/><rect x="595" y="225" rx="4" width="50" height="10" fill="none"/></g></g><g><g><g><defs><marker refX="11" refY="10" markerWidth="10" markerHeight="10" markerUnits="strokeWidth" orient="auto" viewBox="0 0 20 20" id="marker-cncagjmy6ati63qndc3jfk21u" overflow="hidden"><path d="M1 5 11 10 1 15Z" stroke="#22242A" stroke-linecap="round" stroke-linejoin="round" fill="#22242A"/></marker></defs><path d="M238 230 280 230" stroke="#22242A" stroke-width="2" stroke-linecap="round" stroke-linejoin="round" fill="none" marker-end="url(#marker-cncagjmy6ati63qndc3jfk21u)"/></g><path d="M238 230 280 230" stroke="#FFFFFF" stroke-width="15" stroke-opacity="0" fill="none"/><rect x="233" y="225" rx="4" width="52" height="10" fill="none"/></g></g><g><g><g><defs><marker refX="11" refY="10" markerWidth="10" markerHeight="10" markerUnits="strokeWidth" orient="auto" viewBox="0 0 20 20" id="marker-56tjll6w23cijtjhvr08o80xp" overflow="hidden"><path d="M1 5 11 10 1 15Z" stroke="#22242A" stroke-linecap="round" stroke-linejoin="round" fill="#22242A"/></marker></defs><path d="M465 230 500 230" stroke="#22242A" stroke-width="2" stroke-linecap="round" stroke-linejoin="round" fill="none" marker-end="url(#marker-56tjll6w23cijtjhvr08o80xp)"/></g><path d="M465 230 500 230" stroke="#FFFFFF" stroke-width="15" stroke-opacity="0" fill="none"/><rect x="460" y="225" rx="4" width="45" height="10" fill="none"/></g></g><g><g transform="translate(472 212)"><g><text fill="#22242A" font-family="Arial,Arial" font-weight="400" font-size="11"><tspan x="0" y="9.9">YES</tspan></text></g><rect x="0" y="0" width="22" height="14" stroke="#FFFFFF" stroke-width="15" stroke-opacity="0" fill="none"/><rect x="-5" y="-5" rx="4" width="32" height="24" fill="none"/></g></g><g><g><g><defs><marker refX="11" refY="10" markerWidth="10" markerHeight="10" markerUnits="strokeWidth" orient="auto" viewBox="0 0 20 20" id="marker-ai8x7am820h10tuhx8ubz74r5" overflow="hidden"><path d="M1 5 11 10 1 15Z" stroke="#22242A" stroke-linecap="round" stroke-linejoin="round" fill="#22242A"/></marker></defs><path d="M440 255 440 285C440 287.5 442.5 290 445 290L685 290C687.5 290 690 287.5 690 285L690 270" stroke="#22242A" stroke-width="2" stroke-linecap="round" stroke-linejoin="round" fill="none" marker-end="url(#marker-ai8x7am820h10tuhx8ubz74r5)"/></g><path d="M440 255 440 290 690 290 690 270" stroke="#FFFFFF" stroke-width="15" stroke-opacity="0" fill="none"/><rect x="435" y="250" rx="4" width="260" height="45" fill="none"/></g></g><g><g transform="translate(471 272)"><g><text fill="#22242A" font-family="Arial,Arial" font-weight="400" font-size="11"><tspan x="0" y="9.9">NO</tspan></text></g><rect x="0" y="0" width="17" height="14" stroke="#FFFFFF" stroke-width="15" stroke-opacity="0" fill="none"/><rect x="-5" y="-5" rx="4" width="27" height="24" fill="none"/></g></g><g><g><g><defs><marker refX="11" refY="10" markerWidth="10" markerHeight="10" markerUnits="strokeWidth" orient="auto" viewBox="0 0 20 20" id="marker-c7wf2l92j4iugbixrccubsaup" overflow="hidden"><path d="M1 5 11 10 1 15Z" stroke="#22242A" stroke-linecap="round" stroke-linejoin="round" fill="#22242A"/></marker></defs><path d="M380 230 415 230" stroke="#22242A" stroke-width="2" stroke-linecap="round" stroke-linejoin="round" fill="none" marker-end="url(#marker-c7wf2l92j4iugbixrccubsaup)"/></g><path d="M380 230 415 230" stroke="#FFFFFF" stroke-width="15" stroke-opacity="0" fill="none"/><rect x="375" y="225" rx="4" width="45" height="10" fill="none"/></g></g></g></g><g><g><g><defs><marker refX="8.5" refY="5" markerWidth="20" markerHeight="20" markerUnits="strokeWidth" orient="auto" viewBox="0 0 20 20" id="marker-5x6im7a666u7cf2xuadah5cle" overflow="hidden"><path d="M1 5 1 2 8 5 1 8Z" stroke="#22242A" stroke-linecap="round" stroke-linejoin="round" stroke-dasharray="10000 1" fill="#FFFFFF"/></marker><marker refX="6" refY="6" markerWidth="20" markerHeight="20" markerUnits="strokeWidth" orient="auto" viewBox="0 0 20 20" id="marker-arckx35kqu3bsw65zuoj1rrst" overflow="hidden"><circle cx="6" cy="6" r="3.5" stroke="#22242A" stroke-linecap="round" stroke-linejoin="round" stroke-dasharray="10000 1" fill="#FFFFFF"/></marker></defs><path d="M830 270 830 350" stroke="#22242A" stroke-width="1.5" stroke-linecap="round" stroke-linejoin="round" stroke-dasharray="10 11" fill="none" marker-start="url(#marker-arckx35kqu3bsw65zuoj1rrst)" marker-end="url(#marker-5x6im7a666u7cf2xuadah5cle)"/></g><path d="M830 270 830 350" stroke="#FFFFFF" stroke-width="15" stroke-opacity="0" fill="none"/><rect x="825" y="265" rx="4" width="10" height="90" fill="none"/></g></g></svg>