<svg width="1200" height="1040" viewBox="155 115 1200 1040" xmlns="http://www.w3.org/2000/svg" xmlns:xlink="http://www.w3.org/1999/xlink" overflow="hidden"><defs><pattern width="10" height="10" patternUnits="userSpaceOnUse" id="djs-grid-pattern-397735" overflow="hidden"><circle cx="0.5" cy="0.5" r="0.5" fill="#CCCCCC"/></pattern></defs><g><g transform="translate(160 120)"><g><rect x="0" y="0" rx="0" ry="0" width="1190" height="130" stroke="#22242A" stroke-width="1.5" stroke-linecap="round" stroke-linejoin="round" fill="#FFFFFF" fill-opacity="0.95"/><path d="M30 0 30 130" stroke="#22242A" stroke-width="1.5" stroke-linecap="round" stroke-linejoin="round" fill="none"/><text fill="#22242A" font-family="Arial,Arial" font-weight="400" font-size="12" transform="matrix(-1.83697e-16 -1 1 -1.83697e-16 0 130)"><tspan x="28" y="11.4">Metered data </tspan><tspan x="30.1667" y="25.8">administrator</tspan></text></g><rect x="-5" y="-5" rx="4" width="1200" height="140" fill="none"/><rect x="0" y="0" width="1190" height="130" stroke="#FFFFFF" stroke-width="15" stroke-opacity="0" fill="none"/><rect x="0" y="0" width="1190" height="130" stroke="#FFFFFF" stroke-width="15" stroke-opacity="0" fill="none"/><rect x="0" y="0" width="30" height="130" stroke="#FFFFFF" stroke-width="15" stroke-opacity="0" fill="none"/></g><g><g><g transform="translate(202 172)"><g><circle cx="18" cy="18" r="18" stroke="#22242A" stroke-width="2" stroke-linecap="round" stroke-linejoin="round" fill="#FFFFFF" fill-opacity="0.95"/></g><rect x="0" y="0" width="36" height="36" stroke="#FFFFFF" stroke-width="15" stroke-opacity="0" fill="none"/><circle cx="18" cy="18" r="23" fill="none"/></g></g><g><g transform="translate(280 150)"><g><rect x="0" y="0" rx="10" ry="10" width="100" height="80" stroke="#6B3C00" stroke-width="2" stroke-linecap="round" stroke-linejoin="round" fill="#FFE0B2" fill-opacity="0.95"/><text fill="#6B3C00" font-family="Arial,Arial" font-weight="400" font-size="12"><tspan x="18.1083" y="36.4">11a.1 Send </tspan><tspan x="13.3333" y="50.8">metering data</tspan></text></g><rect x="0" y="0" width="100" height="80" stroke="#FFFFFF" stroke-width="15" stroke-opacity="0" fill="none"/><rect x="-5" y="-5" rx="14" width="110" height="90" fill="none"/></g></g><g><g><g><defs><marker refX="11" refY="10" markerWidth="10" markerHeight="10" markerUnits="strokeWidth" orient="auto" viewBox="0 0 20 20" id="marker-cmtq6zbw2rgg6q5zpik5h2o6d" overflow="hidden"><path d="M1 5 11 10 1 15Z" stroke="#22242A" stroke-linecap="round" stroke-linejoin="round" fill="#22242A"/></marker></defs><path d="M238 190 280 190" stroke="#22242A" stroke-width="2" stroke-linecap="round" stroke-linejoin="round" fill="none" marker-end="url(#marker-cmtq6zbw2rgg6q5zpik5h2o6d)"/></g><path d="M238 190 280 190" stroke="#FFFFFF" stroke-width="15" stroke-opacity="0" fill="none"/><rect x="233" y="185" rx="4" width="52" height="10" fill="none"/></g></g></g></g><g><g transform="translate(160 270)"><g><rect x="0" y="0" rx="0" ry="0" width="1190" height="220" stroke="#22242A" stroke-width="1.5" stroke-linecap="round" stroke-linejoin="round" fill="#FFFFFF" fill-opacity="0.95"/><path d="M30 0 30 220" stroke="#22242A" stroke-width="1.5" stroke-linecap="round" stroke-linejoin="round" fill="none"/><text fill="#22242A" font-family="Arial,Arial" font-weight="400" font-size="12" transform="matrix(-1.83697e-16 -1 1 -1.83697e-16 0 220)"><tspan x="1.33334" y="18.6">Self-consumption calculation responsible</tspan></text></g><rect x="-5" y="-5" rx="4" width="1200" height="230" fill="none"/><rect x="0" y="0" width="1190" height="220" stroke="#FFFFFF" stroke-width="15" stroke-opacity="0" fill="none"/><rect x="0" y="0" width="1190" height="220" stroke="#FFFFFF" stroke-width="15" stroke-opacity="0" fill="none"/><rect x="0" y="0" width="30" height="220" stroke="#FFFFFF" stroke-width="15" stroke-opacity="0" fill="none"/></g><g><g><g transform="translate(420 340)"><g><rect x="0" y="0" rx="10" ry="10" width="100" height="80" stroke="#6B3C00" stroke-width="2" stroke-linecap="round" stroke-linejoin="round" fill="#FFE0B2" fill-opacity="0.95"/><text fill="#6B3C00" font-family="Arial,Arial" font-weight="400" font-size="12"><tspan x="10.4417" y="22">11a.2 Execute </tspan><tspan x="30" y="36.4">energy </tspan><tspan x="20" y="50.8">allocations </tspan><tspan x="21.6667" y="65.2">calculation</tspan></text></g><rect x="0" y="0" width="100" height="80" stroke="#FFFFFF" stroke-width="15" stroke-opacity="0" fill="none"/><rect x="-5" y="-5" rx="14" width="110" height="90" fill="none"/></g></g><g><g transform="translate(555 355)"><g><path d="M25 0 50 25 25 50 0 25Z" stroke="#205022" stroke-width="2" stroke-linecap="round" stroke-linejoin="round" fill="#C8E6C9" fill-opacity="0.95"/><path d="M23 10 23 22.5 10.5 22.5 10.5 27.5 23 27.5 23 40 28 40 28 27.5 40.5 27.5 40.5 22.5 28 22.5 28 10 23 10Z" stroke="#205022" stroke-linecap="round" stroke-linejoin="round" fill="#205022"/></g><rect x="0" y="0" width="50" height="50" stroke="#FFFFFF" stroke-width="15" stroke-opacity="0" fill="none"/><rect x="2" y="2" rx="4" width="46" height="46" fill="none"/></g></g><g><g transform="translate(790 340)"><g><rect x="0" y="0" rx="10" ry="10" width="100" height="80" stroke="#6B3C00" stroke-width="2" stroke-linecap="round" stroke-linejoin="round" fill="#FFE0B2" fill-opacity="0.95"/><text fill="#6B3C00" font-family="Arial,Arial" font-weight="400" font-size="12"><tspan x="18.1083" y="22">11a.4 Send </tspan><tspan x="38.6667" y="36.4">self-</tspan><tspan x="14.3333" y="50.8">consumption </tspan><tspan x="32.3333" y="65.2">results</tspan></text></g><rect x="0" y="0" width="100" height="80" stroke="#FFFFFF" stroke-width="15" stroke-opacity="0" fill="none"/><rect x="-5" y="-5" rx="14" width="110" height="90" fill="none"/></g></g><g><g transform="translate(930 290)"><g><rect x="0" y="0" rx="10" ry="10" width="100" height="80" stroke="#6B3C00" stroke-width="2" stroke-linecap="round" stroke-linejoin="round" fill="#FFE0B2" fill-opacity="0.95"/><text fill="#6B3C00" font-family="Arial,Arial" font-weight="400" font-size="12"><tspan x="18.1083" y="29.2">11a.3 Send </tspan><tspan x="16.6667" y="43.6">energy data </tspan><tspan x="10" y="58">and allocations</tspan></text></g><rect x="0" y="0" width="100" height="80" stroke="#FFFFFF" stroke-width="15" stroke-opacity="0" fill="none"/><rect x="-5" y="-5" rx="14" width="110" height="90" fill="none"/></g></g><g><g transform="translate(650 390)"><g><rect x="0" y="0" rx="10" ry="10" width="100" height="80" stroke="#6B3C00" stroke-width="2" stroke-linecap="round" stroke-linejoin="round" fill="#FFE0B2" fill-opacity="0.95"/><text fill="#6B3C00" font-family="Arial,Arial" font-weight="400" font-size="12"><tspan x="18.1083" y="22">11a.7 Send </tspan><tspan x="38.6667" y="36.4">self-</tspan><tspan x="14.3333" y="50.8">consumption </tspan><tspan x="32.3333" y="65.2">results</tspan></text></g><rect x="0" y="0" width="100" height="80" stroke="#FFFFFF" stroke-width="15" stroke-opacity="0" fill="none"/><rect x="-5" y="-5" rx="14" width="110" height="90" fill="none"/></g></g><g><g transform="translate(280 340)"><g><rect x="0" y="0" rx="10" ry="10" width="100" height="80" stroke="#6B3C00" stroke-width="2" stroke-linecap="round" stroke-linejoin="round" fill="#FFE0B2" fill-opacity="0.95"/><text fill="#6B3C00" font-family="Arial,Arial" font-weight="400" font-size="12"><tspan x="10.4417" y="36.4">11a.1 Receive </tspan><tspan x="13.3333" y="50.8">metering data</tspan></text></g><rect x="0" y="0" width="100" height="80" stroke="#FFFFFF" stroke-width="15" stroke-opacity="0" fill="none"/><rect x="-5" y="-5" rx="14" width="110" height="90" fill="none"/></g></g><g><g><g><defs><marker refX="11" refY="10" markerWidth="10" markerHeight="10" markerUnits="strokeWidth" orient="auto" viewBox="0 0 20 20" id="marker-4mixnobi9ceiwprywfaz1vew8" overflow="hidden"><path d="M1 5 11 10 1 15Z" stroke="#22242A" stroke-linecap="round" stroke-linejoin="round" fill="#22242A"/></marker></defs><path d="M520 380 555 380" stroke="#22242A" stroke-width="2" stroke-linecap="round" stroke-linejoin="round" fill="none" marker-end="url(#marker-4mixnobi9ceiwprywfaz1vew8)"/></g><path d="M520 380 555 380" stroke="#FFFFFF" stroke-width="15" stroke-opacity="0" fill="none"/><rect x="515" y="375" rx="4" width="45" height="10" fill="none"/></g></g><g><g><g><defs><marker refX="11" refY="10" markerWidth="10" markerHeight="10" markerUnits="strokeWidth" orient="auto" viewBox="0 0 20 20" id="marker-b596b5wz7qpm2esrwrhpvejq4" overflow="hidden"><path d="M1 5 11 10 1 15Z" stroke="#22242A" stroke-linecap="round" stroke-linejoin="round" fill="#22242A"/></marker></defs><path d="M580 355 580 335C580 332.5 582.5 330 585 330L930 330" stroke="#22242A" stroke-width="2" stroke-linecap="round" stroke-linejoin="round" fill="none" marker-end="url(#marker-b596b5wz7qpm2esrwrhpvejq4)"/></g><path d="M580 355 580 330 930 330" stroke="#FFFFFF" stroke-width="15" stroke-opacity="0" fill="none"/><rect x="575" y="325" rx="4" width="360" height="35" fill="none"/></g></g><g><g><g><defs><marker refX="11" refY="10" markerWidth="10" markerHeight="10" markerUnits="strokeWidth" orient="auto" viewBox="0 0 20 20" id="marker-9aub5fnp4oeyalcva8378gced" overflow="hidden"><path d="M1 5 11 10 1 15Z" stroke="#22242A" stroke-linecap="round" stroke-linejoin="round" fill="#22242A"/></marker></defs><path d="M605 380 790 380" stroke="#22242A" stroke-width="2" stroke-linecap="round" stroke-linejoin="round" fill="none" marker-end="url(#marker-9aub5fnp4oeyalcva8378gced)"/></g><path d="M605 380 790 380" stroke="#FFFFFF" stroke-width="15" stroke-opacity="0" fill="none"/><rect x="600" y="375" rx="4" width="195" height="10" fill="none"/></g></g><g><g><g><defs><marker refX="11" refY="10" markerWidth="10" markerHeight="10" markerUnits="strokeWidth" orient="auto" viewBox="0 0 20 20" id="marker-960b2koc6n5x3elgykkk49nng" overflow="hidden"><path d="M1 5 11 10 1 15Z" stroke="#22242A" stroke-linecap="round" stroke-linejoin="round" fill="#22242A"/></marker></defs><path d="M580 405 580 425C580 427.5 582.5 430 585 430L650 430" stroke="#22242A" stroke-width="2" stroke-linecap="round" stroke-linejoin="round" fill="none" marker-end="url(#marker-960b2koc6n5x3elgykkk49nng)"/></g><path d="M580 405 580 430 650 430" stroke="#FFFFFF" stroke-width="15" stroke-opacity="0" fill="none"/><rect x="575" y="400" rx="4" width="80" height="35" fill="none"/></g></g><g><g><g><defs><marker refX="11" refY="10" markerWidth="10" markerHeight="10" markerUnits="strokeWidth" orient="auto" viewBox="0 0 20 20" id="marker-bjfhakju0773xujfeptd3qcfg" overflow="hidden"><path d="M1 5 11 10 1 15Z" stroke="#22242A" stroke-linecap="round" stroke-linejoin="round" fill="#22242A"/></marker></defs><path d="M380 380 420 380" stroke="#22242A" stroke-width="2" stroke-linecap="round" stroke-linejoin="round" fill="none" marker-end="url(#marker-bjfhakju0773xujfeptd3qcfg)"/></g><path d="M380 380 420 380" stroke="#FFFFFF" stroke-width="15" stroke-opacity="0" fill="none"/><rect x="375" y="375" rx="4" width="50" height="10" fill="none"/></g></g></g></g><g><g transform="translate(160 510)"><g><rect x="0" y="0" rx="0" ry="0" width="1190" height="120" stroke="#22242A" stroke-width="1.5" stroke-linecap="round" stroke-linejoin="round" fill="#FFFFFF" fill-opacity="0.95"/><path d="M30 0 30 120" stroke="#22242A" stroke-width="1.5" stroke-linecap="round" stroke-linejoin="round" fill="none"/><text fill="#22242A" font-family="Arial,Arial" font-weight="400" font-size="12" transform="matrix(-1.83697e-16 -1 1 -1.83697e-16 0 120)"><tspan x="19.1667" y="18.6">CESU operator</tspan></text></g><rect x="-5" y="-5" rx="4" width="1200" height="130" fill="none"/><rect x="0" y="0" width="1190" height="120" stroke="#FFFFFF" stroke-width="15" stroke-opacity="0" fill="none"/><rect x="0" y="0" width="1190" height="120" stroke="#FFFFFF" stroke-width="15" stroke-opacity="0" fill="none"/><rect x="0" y="0" width="30" height="120" stroke="#FFFFFF" stroke-width="15" stroke-opacity="0" fill="none"/></g><g><g><g transform="translate(930 530)"><g><rect x="0" y="0" rx="10" ry="10" width="100" height="80" stroke="#6B3C00" stroke-width="2" stroke-linecap="round" stroke-linejoin="round" fill="#FFE0B2" fill-opacity="0.95"/><text fill="#6B3C00" font-family="Arial,Arial" font-weight="400" font-size="12"><tspan x="10.4417" y="29.2">11a.3 Receive </tspan><tspan x="16.6667" y="43.6">energy data </tspan><tspan x="10" y="58">and allocations</tspan></text></g><rect x="0" y="0" width="100" height="80" stroke="#FFFFFF" stroke-width="15" stroke-opacity="0" fill="none"/><rect x="-5" y="-5" rx="14" width="110" height="90" fill="none"/></g></g><g><g transform="translate(1292 552)"><g><circle cx="18" cy="18" r="18" stroke="#22242A" stroke-width="4" stroke-linecap="round" stroke-linejoin="round" fill="#FFFFFF" fill-opacity="0.95"/></g><rect x="0" y="0" width="36" height="36" stroke="#FFFFFF" stroke-width="15" stroke-opacity="0" fill="none"/><circle cx="18" cy="18" r="24" fill="none"/></g></g><g><g><g><defs><marker refX="11" refY="10" markerWidth="10" markerHeight="10" markerUnits="strokeWidth" orient="auto" viewBox="0 0 20 20" id="marker-2po9sj9lvr80hed5au8arrr5g" overflow="hidden"><path d="M1 5 11 10 1 15Z" stroke="#22242A" stroke-linecap="round" stroke-linejoin="round" fill="#22242A"/></marker></defs><path d="M1030 570 1292 570" stroke="#22242A" stroke-width="2" stroke-linecap="round" stroke-linejoin="round" fill="none" marker-end="url(#marker-2po9sj9lvr80hed5au8arrr5g)"/></g><path d="M1030 570 1292 570" stroke="#FFFFFF" stroke-width="15" stroke-opacity="0" fill="none"/><rect x="1025" y="565" rx="4" width="272" height="10" fill="none"/></g></g></g></g><g><g transform="translate(160 790)"><g><rect x="0" y="0" rx="0" ry="0" width="1190" height="120" stroke="#22242A" stroke-width="1.5" stroke-linecap="round" stroke-linejoin="round" fill="#FFFFFF" fill-opacity="0.95"/><path d="M30 0 30 120" stroke="#22242A" stroke-width="1.5" stroke-linecap="round" stroke-linejoin="round" fill="none"/><text fill="#22242A" font-family="Arial,Arial" font-weight="400" font-size="12" transform="matrix(-1.83697e-16 -1 1 -1.83697e-16 0 120)"><tspan x="25" y="11.4">Independent </tspan><tspan x="30.1917" y="25.8">Aggregator</tspan></text></g><rect x="-5" y="-5" rx="4" width="1200" height="130" fill="none"/><rect x="0" y="0" width="1190" height="120" stroke="#FFFFFF" stroke-width="15" stroke-opacity="0" fill="none"/><rect x="0" y="0" width="1190" height="120" stroke="#FFFFFF" stroke-width="15" stroke-opacity="0" fill="none"/><rect x="0" y="0" width="30" height="120" stroke="#FFFFFF" stroke-width="15" stroke-opacity="0" fill="none"/></g><g><g><g transform="translate(930 810)"><g><rect x="0" y="0" rx="10" ry="10" width="100" height="80" stroke="#6B3C00" stroke-width="2" stroke-linecap="round" stroke-linejoin="round" fill="#FFE0B2" fill-opacity="0.95"/><text fill="#6B3C00" font-family="Arial,Arial" font-weight="400" font-size="12"><tspan x="18.1083" y="29.2">11a.9 Send </tspan><tspan x="18.4583" y="43.6">payment of </tspan><tspan x="10.6667" y="58">energy surplus</tspan></text></g><rect x="0" y="0" width="100" height="80" stroke="#FFFFFF" stroke-width="15" stroke-opacity="0" fill="none"/><rect x="-5" y="-5" rx="14" width="110" height="90" fill="none"/></g></g><g><g transform="translate(790 810)"><g><rect x="0" y="0" rx="10" ry="10" width="100" height="80" stroke="#6B3C00" stroke-width="2" stroke-linecap="round" stroke-linejoin="round" fill="#FFE0B2" fill-opacity="0.95"/><text fill="#6B3C00" font-family="Arial,Arial" font-weight="400" font-size="12"><tspan x="10.4417" y="22">11a.8 Execute </tspan><tspan x="13.125" y="36.4">calculation of </tspan><tspan x="9" y="50.8">energy surplus </tspan><tspan x="25.3333" y="65.2">revenues</tspan></text></g><rect x="0" y="0" width="100" height="80" stroke="#FFFFFF" stroke-width="15" stroke-opacity="0" fill="none"/><rect x="-5" y="-5" rx="14" width="110" height="90" fill="none"/></g></g><g><g transform="translate(650 810)"><g><rect x="0" y="0" rx="10" ry="10" width="100" height="80" stroke="#6B3C00" stroke-width="2" stroke-linecap="round" stroke-linejoin="round" fill="#FFE0B2" fill-opacity="0.95"/><text fill="#6B3C00" font-family="Arial,Arial" font-weight="400" font-size="12"><tspan x="10.4417" y="22">11a.7 Receive </tspan><tspan x="38.6667" y="36.4">self-</tspan><tspan x="14.3333" y="50.8">consumption </tspan><tspan x="32.3333" y="65.2">results</tspan></text></g><rect x="0" y="0" width="100" height="80" stroke="#FFFFFF" stroke-width="15" stroke-opacity="0" fill="none"/><rect x="-5" y="-5" rx="14" width="110" height="90" fill="none"/></g></g><g><g><g><defs><marker refX="11" refY="10" markerWidth="10" markerHeight="10" markerUnits="strokeWidth" orient="auto" viewBox="0 0 20 20" id="marker-5vv1d2ol0bipuu4lit66q7boz" overflow="hidden"><path d="M1 5 11 10 1 15Z" stroke="#22242A" stroke-linecap="round" stroke-linejoin="round" fill="#22242A"/></marker></defs><path d="M890 850 930 850" stroke="#22242A" stroke-width="2" stroke-linecap="round" stroke-linejoin="round" fill="none" marker-end="url(#marker-5vv1d2ol0bipuu4lit66q7boz)"/></g><path d="M890 850 930 850" stroke="#FFFFFF" stroke-width="15" stroke-opacity="0" fill="none"/><rect x="885" y="845" rx="4" width="50" height="10" fill="none"/></g></g><g><g><g><defs><marker refX="11" refY="10" markerWidth="10" markerHeight="10" markerUnits="strokeWidth" orient="auto" viewBox="0 0 20 20" id="marker-24rpcg0mhjp1sffazhwjfblpg" overflow="hidden"><path d="M1 5 11 10 1 15Z" stroke="#22242A" stroke-linecap="round" stroke-linejoin="round" fill="#22242A"/></marker></defs><path d="M750 850 790 850" stroke="#22242A" stroke-width="2" stroke-linecap="round" stroke-linejoin="round" fill="none" marker-end="url(#marker-24rpcg0mhjp1sffazhwjfblpg)"/></g><path d="M750 850 790 850" stroke="#FFFFFF" stroke-width="15" stroke-opacity="0" fill="none"/><rect x="745" y="845" rx="4" width="50" height="10" fill="none"/></g></g></g></g><g><g transform="translate(160 930)"><g><rect x="0" y="0" rx="0" ry="0" width="1190" height="220" stroke="#22242A" stroke-width="1.5" stroke-linecap="round" stroke-linejoin="round" fill="#FFFFFF" fill-opacity="0.95"/><path d="M30 0 30 220" stroke="#22242A" stroke-width="1.5" stroke-linecap="round" stroke-linejoin="round" fill="none"/><text fill="#22242A" font-family="Arial,Arial" font-weight="400" font-size="12" transform="matrix(-1.83697e-16 -1 1 -1.83697e-16 0 220)"><tspan x="69.5" y="18.6">CESU member</tspan></text></g><rect x="-5" y="-5" rx="4" width="1200" height="230" fill="none"/><rect x="0" y="0" width="1190" height="220" stroke="#FFFFFF" stroke-width="15" stroke-opacity="0" fill="none"/><rect x="0" y="0" width="1190" height="220" stroke="#FFFFFF" stroke-width="15" stroke-opacity="0" fill="none"/><rect x="0" y="0" width="30" height="220" stroke="#FFFFFF" stroke-width="15" stroke-opacity="0" fill="none"/></g><g><g><g transform="translate(1070 950)"><g><rect x="0" y="0" rx="10" ry="10" width="100" height="80" stroke="#6B3C00" stroke-width="2" stroke-linecap="round" stroke-linejoin="round" fill="#FFE0B2" fill-opacity="0.95"/><text fill="#6B3C00" font-family="Arial,Arial" font-weight="400" font-size="12"><tspan x="10.4417" y="36.4">11a.6 Receive </tspan><tspan x="22.6667" y="50.8">energy bill</tspan></text></g><rect x="0" y="0" width="100" height="80" stroke="#FFFFFF" stroke-width="15" stroke-opacity="0" fill="none"/><rect x="-5" y="-5" rx="14" width="110" height="90" fill="none"/></g></g><g><g transform="translate(930 1050)"><g><rect x="0" y="0" rx="10" ry="10" width="100" height="80" stroke="#6B3C00" stroke-width="2" stroke-linecap="round" stroke-linejoin="round" fill="#FFE0B2" fill-opacity="0.95"/><text fill="#6B3C00" font-family="Arial,Arial" font-weight="400" font-size="12"><tspan x="10.4417" y="29.2">11a.9 Receive </tspan><tspan x="18.4583" y="43.6">payment of </tspan><tspan x="10.6667" y="58">energy surplus</tspan></text></g><rect x="0" y="0" width="100" height="80" stroke="#FFFFFF" stroke-width="15" stroke-opacity="0" fill="none"/><rect x="-5" y="-5" rx="14" width="110" height="90" fill="none"/></g></g><g><g transform="translate(1205 1015)"><g><path d="M25 0 50 25 25 50 0 25Z" stroke="#205022" stroke-width="2" stroke-linecap="round" stroke-linejoin="round" fill="#C8E6C9" fill-opacity="0.95"/><path d="M23 10 23 22.5 10.5 22.5 10.5 27.5 23 27.5 23 40 28 40 28 27.5 40.5 27.5 40.5 22.5 28 22.5 28 10 23 10Z" stroke="#205022" stroke-linecap="round" stroke-linejoin="round" fill="#205022"/></g><rect x="0" y="0" width="50" height="50" stroke="#FFFFFF" stroke-width="15" stroke-opacity="0" fill="none"/><rect x="2" y="2" rx="4" width="46" height="46" fill="none"/></g></g><g><g transform="translate(1292 1022)"><g><circle cx="18" cy="18" r="18" stroke="#22242A" stroke-width="4" stroke-linecap="round" stroke-linejoin="round" fill="#FFFFFF" fill-opacity="0.95"/></g><rect x="0" y="0" width="36" height="36" stroke="#FFFFFF" stroke-width="15" stroke-opacity="0" fill="none"/><circle cx="18" cy="18" r="24" fill="none"/></g></g><g><g><g><defs><marker refX="11" refY="10" markerWidth="10" markerHeight="10" markerUnits="strokeWidth" orient="auto" viewBox="0 0 20 20" id="marker-1sg7w37hx0ig3se3qv4rt2sc4" overflow="hidden"><path d="M1 5 11 10 1 15Z" stroke="#22242A" stroke-linecap="round" stroke-linejoin="round" fill="#22242A"/></marker></defs><path d="M1170 990 1225 990C1227.5 990 1230 992.5 1230 995L1230 1015" stroke="#22242A" stroke-width="2" stroke-linecap="round" stroke-linejoin="round" fill="none" marker-end="url(#marker-1sg7w37hx0ig3se3qv4rt2sc4)"/></g><path d="M1170 990 1230 990 1230 1015" stroke="#FFFFFF" stroke-width="15" stroke-opacity="0" fill="none"/><rect x="1165" y="985" rx="4" width="70" height="35" fill="none"/></g></g><g><g><g><defs><marker refX="11" refY="10" markerWidth="10" markerHeight="10" markerUnits="strokeWidth" orient="auto" viewBox="0 0 20 20" id="marker-0b0o9j63p4a8uv6j0gwsajyao" overflow="hidden"><path d="M1 5 11 10 1 15Z" stroke="#22242A" stroke-linecap="round" stroke-linejoin="round" fill="#22242A"/></marker></defs><path d="M1030 1090 1225 1090C1227.5 1090 1230 1087.5 1230 1085L1230 1065" stroke="#22242A" stroke-width="2" stroke-linecap="round" stroke-linejoin="round" fill="none" marker-end="url(#marker-0b0o9j63p4a8uv6j0gwsajyao)"/></g><path d="M1030 1090 1230 1090 1230 1065" stroke="#FFFFFF" stroke-width="15" stroke-opacity="0" fill="none"/><rect x="1025" y="1060" rx="4" width="210" height="35" fill="none"/></g></g><g><g><g><defs><marker refX="11" refY="10" markerWidth="10" markerHeight="10" markerUnits="strokeWidth" orient="auto" viewBox="0 0 20 20" id="marker-bhyw9o3ufifa9git8m16slq05" overflow="hidden"><path d="M1 5 11 10 1 15Z" stroke="#22242A" stroke-linecap="round" stroke-linejoin="round" fill="#22242A"/></marker></defs><path d="M1255 1040 1292 1040" stroke="#22242A" stroke-width="2" stroke-linecap="round" stroke-linejoin="round" fill="none" marker-end="url(#marker-bhyw9o3ufifa9git8m16slq05)"/></g><path d="M1255 1040 1292 1040" stroke="#FFFFFF" stroke-width="15" stroke-opacity="0" fill="none"/><rect x="1250" y="1035" rx="4" width="47" height="10" fill="none"/></g></g></g></g><g><g transform="translate(160 650)"><g><rect x="0" y="0" rx="0" ry="0" width="1190" height="120" stroke="#22242A" stroke-width="1.5" stroke-linecap="round" stroke-linejoin="round" fill="#FFFFFF" fill-opacity="0.95"/><path d="M30 0 30 120" stroke="#22242A" stroke-width="1.5" stroke-linecap="round" stroke-linejoin="round" fill="none"/><text fill="#22242A" font-family="Arial,Arial" font-weight="400" font-size="12" transform="matrix(-1.83697e-16 -1 1 -1.83697e-16 0 120)"><tspan x="37.8333" y="18.6">Supplier</tspan></text></g><rect x="-5" y="-5" rx="4" width="1200" height="130" fill="none"/><rect x="0" y="0" width="1190" height="120" stroke="#FFFFFF" stroke-width="15" stroke-opacity="0" fill="none"/><rect x="0" y="0" width="1190" height="120" stroke="#FFFFFF" stroke-width="15" stroke-opacity="0" fill="none"/><rect x="0" y="0" width="30" height="120" stroke="#FFFFFF" stroke-width="15" stroke-opacity="0" fill="none"/></g><g><g><g transform="translate(1070 670)"><g><rect x="0" y="0" rx="10" ry="10" width="100" height="80" stroke="#6B3C00" stroke-width="2" stroke-linecap="round" stroke-linejoin="round" fill="#FFE0B2" fill-opacity="0.95"/><text fill="#6B3C00" font-family="Arial,Arial" font-weight="400" font-size="12"><tspan x="10.4417" y="29.2">11a.5 Execute </tspan><tspan x="13.125" y="43.6">calculation of </tspan><tspan x="19.6667" y="58">energy bills</tspan></text></g><rect x="0" y="0" width="100" height="80" stroke="#FFFFFF" stroke-width="15" stroke-opacity="0" fill="none"/><rect x="-5" y="-5" rx="14" width="110" height="90" fill="none"/></g></g><g><g transform="translate(1210 670)"><g><rect x="0" y="0" rx="10" ry="10" width="100" height="80" stroke="#6B3C00" stroke-width="2" stroke-linecap="round" stroke-linejoin="round" fill="#FFE0B2" fill-opacity="0.95"/><text fill="#6B3C00" font-family="Arial,Arial" font-weight="400" font-size="12"><tspan x="18.1083" y="36.4">11a.6 Send </tspan><tspan x="22.6667" y="50.8">energy bill</tspan></text></g><rect x="0" y="0" width="100" height="80" stroke="#FFFFFF" stroke-width="15" stroke-opacity="0" fill="none"/><rect x="-5" y="-5" rx="14" width="110" height="90" fill="none"/></g></g><g><g transform="translate(930 670)"><g><rect x="0" y="0" rx="10" ry="10" width="100" height="80" stroke="#6B3C00" stroke-width="2" stroke-linecap="round" stroke-linejoin="round" fill="#FFE0B2" fill-opacity="0.95"/><text fill="#6B3C00" font-family="Arial,Arial" font-weight="400" font-size="12"><tspan x="10.4417" y="22">11a.4 Receive </tspan><tspan x="38.6667" y="36.4">self-</tspan><tspan x="14.3333" y="50.8">consumption </tspan><tspan x="32.3333" y="65.2">results</tspan></text></g><rect x="0" y="0" width="100" height="80" stroke="#FFFFFF" stroke-width="15" stroke-opacity="0" fill="none"/><rect x="-5" y="-5" rx="14" width="110" height="90" fill="none"/></g></g><g><g><g><defs><marker refX="11" refY="10" markerWidth="10" markerHeight="10" markerUnits="strokeWidth" orient="auto" viewBox="0 0 20 20" id="marker-cyo0diq9w8x9wt9w9i0b4y5ax" overflow="hidden"><path d="M1 5 11 10 1 15Z" stroke="#22242A" stroke-linecap="round" stroke-linejoin="round" fill="#22242A"/></marker></defs><path d="M1170 710 1210 710" stroke="#22242A" stroke-width="2" stroke-linecap="round" stroke-linejoin="round" fill="none" marker-end="url(#marker-cyo0diq9w8x9wt9w9i0b4y5ax)"/></g><path d="M1170 710 1210 710" stroke="#FFFFFF" stroke-width="15" stroke-opacity="0" fill="none"/><rect x="1165" y="705" rx="4" width="50" height="10" fill="none"/></g></g><g><g><g><defs><marker refX="11" refY="10" markerWidth="10" markerHeight="10" markerUnits="strokeWidth" orient="auto" viewBox="0 0 20 20" id="marker-9uygqn0guiz2i98z8lezl62ht" overflow="hidden"><path d="M1 5 11 10 1 15Z" stroke="#22242A" stroke-linecap="round" stroke-linejoin="round" fill="#22242A"/></marker></defs><path d="M1030 710 1070 710" stroke="#22242A" stroke-width="2" stroke-linecap="round" stroke-linejoin="round" fill="none" marker-end="url(#marker-9uygqn0guiz2i98z8lezl62ht)"/></g><path d="M1030 710 1070 710" stroke="#FFFFFF" stroke-width="15" stroke-opacity="0" fill="none"/><rect x="1025" y="705" rx="4" width="50" height="10" fill="none"/></g></g></g></g><g><g><g><defs><marker refX="8.5" refY="5" markerWidth="20" markerHeight="20" markerUnits="strokeWidth" orient="auto" viewBox="0 0 20 20" id="marker-4hy20buzce8fs5rrrxfrwjfbr" overflow="hidden"><path d="M1 5 1 2 8 5 1 8Z" stroke="#22242A" stroke-linecap="round" stroke-linejoin="round" stroke-dasharray="10000 1" fill="#FFFFFF"/></marker><marker refX="6" refY="6" markerWidth="20" markerHeight="20" markerUnits="strokeWidth" orient="auto" viewBox="0 0 20 20" id="marker-0y8lky48mjb3i2evvx6mwcnvw" overflow="hidden"><circle cx="6" cy="6" r="3.5" stroke="#22242A" stroke-linecap="round" stroke-linejoin="round" stroke-dasharray="10000 1" fill="#FFFFFF"/></marker></defs><path d="M1260 750 1260 845C1260 847.5 1257.5 850 1255 850L1125 850C1122.5 850 1120 852.5 1120 855L1120 950" stroke="#22242A" stroke-width="1.5" stroke-linecap="round" stroke-linejoin="round" stroke-dasharray="10 11" fill="none" marker-start="url(#marker-0y8lky48mjb3i2evvx6mwcnvw)" marker-end="url(#marker-4hy20buzce8fs5rrrxfrwjfbr)"/></g><path d="M1260 750 1260 850 1120 850 1120 950" stroke="#FFFFFF" stroke-width="15" stroke-opacity="0" fill="none"/><rect x="1115" y="745" rx="4" width="150" height="210" fill="none"/></g></g><g><g><g><defs><marker refX="8.5" refY="5" markerWidth="20" markerHeight="20" markerUnits="strokeWidth" orient="auto" viewBox="0 0 20 20" id="marker-aro002zdqahapsch0m06gorzd" overflow="hidden"><path d="M1 5 1 2 8 5 1 8Z" stroke="#22242A" stroke-linecap="round" stroke-linejoin="round" stroke-dasharray="10000 1" fill="#FFFFFF"/></marker><marker refX="6" refY="6" markerWidth="20" markerHeight="20" markerUnits="strokeWidth" orient="auto" viewBox="0 0 20 20" id="marker-8oi61h9gyzz0reaa5711prxem" overflow="hidden"><circle cx="6" cy="6" r="3.5" stroke="#22242A" stroke-linecap="round" stroke-linejoin="round" stroke-dasharray="10000 1" fill="#FFFFFF"/></marker></defs><path d="M980 370 980 530" stroke="#22242A" stroke-width="1.5" stroke-linecap="round" stroke-linejoin="round" stroke-dasharray="10 11" fill="none" marker-start="url(#marker-8oi61h9gyzz0reaa5711prxem)" marker-end="url(#marker-aro002zdqahapsch0m06gorzd)"/></g><path d="M980 370 980 530" stroke="#FFFFFF" stroke-width="15" stroke-opacity="0" fill="none"/><rect x="975" y="365" rx="4" width="10" height="170" fill="none"/></g></g><g><g><g><defs><marker refX="8.5" refY="5" markerWidth="20" markerHeight="20" markerUnits="strokeWidth" orient="auto" viewBox="0 0 20 20" id="marker-3zg661x8gn0fiwtsxhot08d91" overflow="hidden"><path d="M1 5 1 2 8 5 1 8Z" stroke="#22242A" stroke-linecap="round" stroke-linejoin="round" stroke-dasharray="10000 1" fill="#FFFFFF"/></marker><marker refX="6" refY="6" markerWidth="20" markerHeight="20" markerUnits="strokeWidth" orient="auto" viewBox="0 0 20 20" id="marker-35wsp1xejalnsf2soajln36ci" overflow="hidden"><circle cx="6" cy="6" r="3.5" stroke="#22242A" stroke-linecap="round" stroke-linejoin="round" stroke-dasharray="10000 1" fill="#FFFFFF"/></marker></defs><path d="M980 890 980 1050" stroke="#22242A" stroke-width="1.5" stroke-linecap="round" stroke-linejoin="round" stroke-dasharray="10 11" fill="none" marker-start="url(#marker-35wsp1xejalnsf2soajln36ci)" marker-end="url(#marker-3zg661x8gn0fiwtsxhot08d91)"/></g><path d="M980 890 980 1050" stroke="#FFFFFF" stroke-width="15" stroke-opacity="0" fill="none"/><rect x="975" y="885" rx="4" width="10" height="170" fill="none"/></g></g><g><g><g><defs><marker refX="8.5" refY="5" markerWidth="20" markerHeight="20" markerUnits="strokeWidth" orient="auto" viewBox="0 0 20 20" id="marker-6du9w7exh5e840r601d21f7qj" overflow="hidden"><path d="M1 5 1 2 8 5 1 8Z" stroke="#22242A" stroke-linecap="round" stroke-linejoin="round" stroke-dasharray="10000 1" fill="#FFFFFF"/></marker><marker refX="6" refY="6" markerWidth="20" markerHeight="20" markerUnits="strokeWidth" orient="auto" viewBox="0 0 20 20" id="marker-6kjxqpmugd19ieye7086kg55m" overflow="hidden"><circle cx="6" cy="6" r="3.5" stroke="#22242A" stroke-linecap="round" stroke-linejoin="round" stroke-dasharray="10000 1" fill="#FFFFFF"/></marker></defs><path d="M330 230 330 340" stroke="#22242A" stroke-width="1.5" stroke-linecap="round" stroke-linejoin="round" stroke-dasharray="10 11" fill="none" marker-start="url(#marker-6kjxqpmugd19ieye7086kg55m)" marker-end="url(#marker-6du9w7exh5e840r601d21f7qj)"/></g><path d="M330 230 330 340" stroke="#FFFFFF" stroke-width="15" stroke-opacity="0" fill="none"/><rect x="325" y="225" rx="4" width="10" height="120" fill="none"/></g></g><g><g><g><defs><marker refX="8.5" refY="5" markerWidth="20" markerHeight="20" markerUnits="strokeWidth" orient="auto" viewBox="0 0 20 20" id="marker-ea7602wgad4qj2v8t45yom53f" overflow="hidden"><path d="M1 5 1 2 8 5 1 8Z" stroke="#22242A" stroke-linecap="round" stroke-linejoin="round" stroke-dasharray="10000 1" fill="#FFFFFF"/></marker><marker refX="6" refY="6" markerWidth="20" markerHeight="20" markerUnits="strokeWidth" orient="auto" viewBox="0 0 20 20" id="marker-erxtcou3if5d2kvgl28af29t4" overflow="hidden"><circle cx="6" cy="6" r="3.5" stroke="#22242A" stroke-linecap="round" stroke-linejoin="round" stroke-dasharray="10000 1" fill="#FFFFFF"/></marker></defs><path d="M840 420 840 705C840 707.5 842.5 710 845 710L930 710" stroke="#22242A" stroke-width="1.5" stroke-linecap="round" stroke-linejoin="round" stroke-dasharray="10 11" fill="none" marker-start="url(#marker-erxtcou3if5d2kvgl28af29t4)" marker-end="url(#marker-ea7602wgad4qj2v8t45yom53f)"/></g><path d="M840 420 840 710 930 710" stroke="#FFFFFF" stroke-width="15" stroke-opacity="0" fill="none"/><rect x="835" y="415" rx="4" width="100" height="300" fill="none"/></g></g><g><g><g><defs><marker refX="8.5" refY="5" markerWidth="20" markerHeight="20" markerUnits="strokeWidth" orient="auto" viewBox="0 0 20 20" id="marker-9i25y0hbq1vh87h2a5qsy764q" overflow="hidden"><path d="M1 5 1 2 8 5 1 8Z" stroke="#22242A" stroke-linecap="round" stroke-linejoin="round" stroke-dasharray="10000 1" fill="#FFFFFF"/></marker><marker refX="6" refY="6" markerWidth="20" markerHeight="20" markerUnits="strokeWidth" orient="auto" viewBox="0 0 20 20" id="marker-1v0tg59oybtk04araagvrwljw" overflow="hidden"><circle cx="6" cy="6" r="3.5" stroke="#22242A" stroke-linecap="round" stroke-linejoin="round" stroke-dasharray="10000 1" fill="#FFFFFF"/></marker></defs><path d="M700 470 700 810" stroke="#22242A" stroke-width="1.5" stroke-linecap="round" stroke-linejoin="round" stroke-dasharray="10 11" fill="none" marker-start="url(#marker-1v0tg59oybtk04araagvrwljw)" marker-end="url(#marker-9i25y0hbq1vh87h2a5qsy764q)"/></g><path d="M700 470 700 810" stroke="#FFFFFF" stroke-width="15" stroke-opacity="0" fill="none"/><rect x="695" y="465" rx="4" width="10" height="350" fill="none"/></g></g></svg>