<svg width="2068" height="1040" viewBox="155 75 2068 1040" xmlns="http://www.w3.org/2000/svg" xmlns:xlink="http://www.w3.org/1999/xlink" overflow="hidden"><defs><pattern width="10" height="10" patternUnits="userSpaceOnUse" id="djs-grid-pattern-29180" overflow="hidden"><circle cx="0.5" cy="0.5" r="0.5" fill="#CCCCCC"/></pattern></defs><g><g transform="translate(160 80)"><g><rect x="0" y="0" rx="0" ry="0" width="2058" height="130" stroke="#22242A" stroke-width="1.5" stroke-linecap="round" stroke-linejoin="round" fill="#FFFFFF" fill-opacity="0.95"/><path d="M30 0 30 130" stroke="#22242A" stroke-width="1.5" stroke-linecap="round" stroke-linejoin="round" fill="none"/><text fill="#22242A" font-family="Arial,Arial" font-weight="400" font-size="12" transform="matrix(-1.83697e-16 -1 1 -1.83697e-16 0 130)"><tspan x="28" y="11.4">Metered data </tspan><tspan x="30.1667" y="25.8">administrator</tspan></text></g><rect x="-5" y="-5" rx="4" width="2068" height="140" fill="none"/><rect x="0" y="0" width="2058" height="130" stroke="#FFFFFF" stroke-width="15" stroke-opacity="0" fill="none"/><rect x="0" y="0" width="2058" height="130" stroke="#FFFFFF" stroke-width="15" stroke-opacity="0" fill="none"/><rect x="0" y="0" width="30" height="130" stroke="#FFFFFF" stroke-width="15" stroke-opacity="0" fill="none"/></g><g><g><g transform="translate(202 132)"><g><circle cx="18" cy="18" r="18" stroke="#22242A" stroke-width="2" stroke-linecap="round" stroke-linejoin="round" fill="#FFFFFF" fill-opacity="0.95"/></g><rect x="0" y="0" width="36" height="36" stroke="#FFFFFF" stroke-width="15" stroke-opacity="0" fill="none"/><circle cx="18" cy="18" r="23" fill="none"/></g></g><g><g transform="translate(280 110)"><g><rect x="0" y="0" rx="10" ry="10" width="100" height="80" stroke="#6B3C00" stroke-width="2" stroke-linecap="round" stroke-linejoin="round" fill="#FFE0B2" fill-opacity="0.95"/><text fill="#6B3C00" font-family="Arial,Arial" font-weight="400" font-size="12"><tspan x="18.1083" y="36.4">11b.1 Send </tspan><tspan x="13.3333" y="50.8">metering data</tspan></text></g><rect x="0" y="0" width="100" height="80" stroke="#FFFFFF" stroke-width="15" stroke-opacity="0" fill="none"/><rect x="-5" y="-5" rx="14" width="110" height="90" fill="none"/></g></g><g><g><g><defs><marker refX="11" refY="10" markerWidth="10" markerHeight="10" markerUnits="strokeWidth" orient="auto" viewBox="0 0 20 20" id="marker-5pkxg9zct1zzn2cpn9bahrlpn" overflow="hidden"><path d="M1 5 11 10 1 15Z" stroke="#22242A" stroke-linecap="round" stroke-linejoin="round" fill="#22242A"/></marker></defs><path d="M238 150 280 150" stroke="#22242A" stroke-width="2" stroke-linecap="round" stroke-linejoin="round" fill="none" marker-end="url(#marker-5pkxg9zct1zzn2cpn9bahrlpn)"/></g><path d="M238 150 280 150" stroke="#FFFFFF" stroke-width="15" stroke-opacity="0" fill="none"/><rect x="233" y="145" rx="4" width="52" height="10" fill="none"/></g></g></g></g><g><g transform="translate(160 230)"><g><rect x="0" y="0" rx="0" ry="0" width="2058" height="220" stroke="#22242A" stroke-width="1.5" stroke-linecap="round" stroke-linejoin="round" fill="#FFFFFF" fill-opacity="0.95"/><path d="M30 0 30 220" stroke="#22242A" stroke-width="1.5" stroke-linecap="round" stroke-linejoin="round" fill="none"/><text fill="#22242A" font-family="Arial,Arial" font-weight="400" font-size="12" transform="matrix(-1.83697e-16 -1 1 -1.83697e-16 0 220)"><tspan x="1.33334" y="18.6">Self-consumption calculation responsible</tspan></text></g><rect x="-5" y="-5" rx="4" width="2068" height="230" fill="none"/><rect x="0" y="0" width="2058" height="220" stroke="#FFFFFF" stroke-width="15" stroke-opacity="0" fill="none"/><rect x="0" y="0" width="2058" height="220" stroke="#FFFFFF" stroke-width="15" stroke-opacity="0" fill="none"/><rect x="0" y="0" width="30" height="220" stroke="#FFFFFF" stroke-width="15" stroke-opacity="0" fill="none"/></g><g><g><g transform="translate(430 300)"><g><rect x="0" y="0" rx="10" ry="10" width="100" height="80" stroke="#6B3C00" stroke-width="2" stroke-linecap="round" stroke-linejoin="round" fill="#FFE0B2" fill-opacity="0.95"/><text fill="#6B3C00" font-family="Arial,Arial" font-weight="400" font-size="12"><tspan x="18.1083" y="29.2">11a.2 Send </tspan><tspan x="30.3333" y="43.6">default </tspan><tspan x="24.6667" y="58">allocation</tspan></text></g><rect x="0" y="0" width="100" height="80" stroke="#FFFFFF" stroke-width="15" stroke-opacity="0" fill="none"/><rect x="-5" y="-5" rx="14" width="110" height="90" fill="none"/></g></g><g><g transform="translate(280 300)"><g><rect x="0" y="0" rx="10" ry="10" width="100" height="80" stroke="#6B3C00" stroke-width="2" stroke-linecap="round" stroke-linejoin="round" fill="#FFE0B2" fill-opacity="0.95"/><text fill="#6B3C00" font-family="Arial,Arial" font-weight="400" font-size="12"><tspan x="10.4417" y="36.4">11b.1 Receive </tspan><tspan x="13.3333" y="50.8">metering data</tspan></text></g><rect x="0" y="0" width="100" height="80" stroke="#FFFFFF" stroke-width="15" stroke-opacity="0" fill="none"/><rect x="-5" y="-5" rx="14" width="110" height="90" fill="none"/></g></g><g><g transform="translate(1010 300)"><g><rect x="0" y="0" rx="10" ry="10" width="100" height="80" stroke="#6B3C00" stroke-width="2" stroke-linecap="round" stroke-linejoin="round" fill="#FFE0B2" fill-opacity="0.95"/><text fill="#6B3C00" font-family="Arial,Arial" font-weight="400" font-size="12"><tspan x="10.8833" y="29.2">11b.6 Validate </tspan><tspan x="23" y="43.6">allocation </tspan><tspan x="20.1083" y="58">coefficients</tspan></text></g><rect x="0" y="0" width="100" height="80" stroke="#FFFFFF" stroke-width="15" stroke-opacity="0" fill="none"/><rect x="-5" y="-5" rx="14" width="110" height="90" fill="none"/></g></g><g><g transform="translate(1150 300)"><g><rect x="0" y="0" rx="10" ry="10" width="100" height="80" stroke="#6B3C00" stroke-width="2" stroke-linecap="round" stroke-linejoin="round" fill="#FFE0B2" fill-opacity="0.95"/><text fill="#6B3C00" font-family="Arial,Arial" font-weight="400" font-size="12"><tspan x="18.1083" y="29.2">11b.7 Send </tspan><tspan x="23" y="43.6">validation </tspan><tspan x="32.3333" y="58">results</tspan></text></g><rect x="0" y="0" width="100" height="80" stroke="#FFFFFF" stroke-width="15" stroke-opacity="0" fill="none"/><rect x="-5" y="-5" rx="14" width="110" height="90" fill="none"/></g></g><g><g transform="translate(1290 300)"><g><rect x="0" y="0" rx="10" ry="10" width="100" height="80" stroke="#6B3C00" stroke-width="2" stroke-linecap="round" stroke-linejoin="round" fill="#FFE0B2" fill-opacity="0.95"/><text fill="#6B3C00" font-family="Arial,Arial" font-weight="400" font-size="12"><tspan x="10.4417" y="22">11b.8 Execute </tspan><tspan x="7.66667" y="36.4">dynamic energy</tspan><tspan x="23" y="50.8">allocation </tspan><tspan x="17.3333" y="65.2">computation</tspan></text></g><rect x="0" y="0" width="100" height="80" stroke="#FFFFFF" stroke-width="15" stroke-opacity="0" fill="none"/><rect x="-5" y="-5" rx="14" width="110" height="90" fill="none"/></g></g><g><g transform="translate(1425 315)"><g><path d="M25 0 50 25 25 50 0 25Z" stroke="#205022" stroke-width="2" stroke-linecap="round" stroke-linejoin="round" fill="#C8E6C9" fill-opacity="0.95"/><path d="M23 10 23 22.5 10.5 22.5 10.5 27.5 23 27.5 23 40 28 40 28 27.5 40.5 27.5 40.5 22.5 28 22.5 28 10 23 10Z" stroke="#205022" stroke-linecap="round" stroke-linejoin="round" fill="#205022"/></g><rect x="0" y="0" width="50" height="50" stroke="#FFFFFF" stroke-width="15" stroke-opacity="0" fill="none"/><rect x="2" y="2" rx="4" width="46" height="46" fill="none"/></g></g><g><g transform="translate(870 300)"><g><rect x="0" y="0" rx="10" ry="10" width="100" height="80" stroke="#6B3C00" stroke-width="2" stroke-linecap="round" stroke-linejoin="round" fill="#FFE0B2" fill-opacity="0.95"/><text fill="#6B3C00" font-family="Arial,Arial" font-weight="400" font-size="12"><tspan x="10.4417" y="22">11b.5 Receive </tspan><tspan x="26" y="36.4">dynamic </tspan><tspan x="23" y="50.8">allocation </tspan><tspan x="20.1083" y="65.2">coefficients</tspan></text></g><rect x="0" y="0" width="100" height="80" stroke="#FFFFFF" stroke-width="15" stroke-opacity="0" fill="none"/><rect x="-5" y="-5" rx="14" width="110" height="90" fill="none"/></g></g><g><g transform="translate(1520 350)"><g><rect x="0" y="0" rx="10" ry="10" width="100" height="80" stroke="#6B3C00" stroke-width="2" stroke-linecap="round" stroke-linejoin="round" fill="#FFE0B2" fill-opacity="0.95"/><text fill="#6B3C00" font-family="Arial,Arial" font-weight="400" font-size="12"><tspan x="14.775" y="22">11b.13 Send </tspan><tspan x="38.6667" y="36.4">self-</tspan><tspan x="14.3333" y="50.8">consumption </tspan><tspan x="32.3333" y="65.2">results</tspan></text></g><rect x="0" y="0" width="100" height="80" stroke="#FFFFFF" stroke-width="15" stroke-opacity="0" fill="none"/><rect x="-5" y="-5" rx="14" width="110" height="90" fill="none"/></g></g><g><g transform="translate(1660 300)"><g><rect x="0" y="0" rx="10" ry="10" width="100" height="80" stroke="#6B3C00" stroke-width="2" stroke-linecap="round" stroke-linejoin="round" fill="#FFE0B2" fill-opacity="0.95"/><text fill="#6B3C00" font-family="Arial,Arial" font-weight="400" font-size="12"><tspan x="14.775" y="22">11b.10 Send </tspan><tspan x="38.6667" y="36.4">self-</tspan><tspan x="14.3333" y="50.8">consumption </tspan><tspan x="32.3333" y="65.2">results</tspan></text></g><rect x="0" y="0" width="100" height="80" stroke="#FFFFFF" stroke-width="15" stroke-opacity="0" fill="none"/><rect x="-5" y="-5" rx="14" width="110" height="90" fill="none"/></g></g><g><g transform="translate(1800 250)"><g><rect x="0" y="0" rx="10" ry="10" width="100" height="80" stroke="#6B3C00" stroke-width="2" stroke-linecap="round" stroke-linejoin="round" fill="#FFE0B2" fill-opacity="0.95"/><text fill="#6B3C00" font-family="Arial,Arial" font-weight="400" font-size="12"><tspan x="18.1083" y="22">11b.9 Send </tspan><tspan x="11.6667" y="36.4">metering data </tspan><tspan x="18.3333" y="50.8">and energy </tspan><tspan x="21.6667" y="65.2">allocations</tspan></text></g><rect x="0" y="0" width="100" height="80" stroke="#FFFFFF" stroke-width="15" stroke-opacity="0" fill="none"/><rect x="-5" y="-5" rx="14" width="110" height="90" fill="none"/></g></g><g><g><g><defs><marker refX="11" refY="10" markerWidth="10" markerHeight="10" markerUnits="strokeWidth" orient="auto" viewBox="0 0 20 20" id="marker-dlw3sm09umytesss6congw7qc" overflow="hidden"><path d="M1 5 11 10 1 15Z" stroke="#22242A" stroke-linecap="round" stroke-linejoin="round" fill="#22242A"/></marker></defs><path d="M1110 340 1150 340" stroke="#22242A" stroke-width="2" stroke-linecap="round" stroke-linejoin="round" fill="none" marker-end="url(#marker-dlw3sm09umytesss6congw7qc)"/></g><path d="M1110 340 1150 340" stroke="#FFFFFF" stroke-width="15" stroke-opacity="0" fill="none"/><rect x="1105" y="335" rx="4" width="50" height="10" fill="none"/></g></g><g><g><g><defs><marker refX="11" refY="10" markerWidth="10" markerHeight="10" markerUnits="strokeWidth" orient="auto" viewBox="0 0 20 20" id="marker-96qpru64v0cdv2ann2jvnq0qt" overflow="hidden"><path d="M1 5 11 10 1 15Z" stroke="#22242A" stroke-linecap="round" stroke-linejoin="round" fill="#22242A"/></marker></defs><path d="M1250 340 1290 340" stroke="#22242A" stroke-width="2" stroke-linecap="round" stroke-linejoin="round" fill="none" marker-end="url(#marker-96qpru64v0cdv2ann2jvnq0qt)"/></g><path d="M1250 340 1290 340" stroke="#FFFFFF" stroke-width="15" stroke-opacity="0" fill="none"/><rect x="1245" y="335" rx="4" width="50" height="10" fill="none"/></g></g><g><g><g><defs><marker refX="11" refY="10" markerWidth="10" markerHeight="10" markerUnits="strokeWidth" orient="auto" viewBox="0 0 20 20" id="marker-6gpnop63zro5mtvpyyjylq41a" overflow="hidden"><path d="M1 5 11 10 1 15Z" stroke="#22242A" stroke-linecap="round" stroke-linejoin="round" fill="#22242A"/></marker></defs><path d="M1475 340 1660 340" stroke="#22242A" stroke-width="2" stroke-linecap="round" stroke-linejoin="round" fill="none" marker-end="url(#marker-6gpnop63zro5mtvpyyjylq41a)"/></g><path d="M1475 340 1660 340" stroke="#FFFFFF" stroke-width="15" stroke-opacity="0" fill="none"/><rect x="1470" y="335" rx="4" width="195" height="10" fill="none"/></g></g><g><g><g><defs><marker refX="11" refY="10" markerWidth="10" markerHeight="10" markerUnits="strokeWidth" orient="auto" viewBox="0 0 20 20" id="marker-bty54qwxbeyqhivqwbwfo4hsa" overflow="hidden"><path d="M1 5 11 10 1 15Z" stroke="#22242A" stroke-linecap="round" stroke-linejoin="round" fill="#22242A"/></marker></defs><path d="M1450 365 1450 385C1450 387.5 1452.5 390 1455 390L1520 390" stroke="#22242A" stroke-width="2" stroke-linecap="round" stroke-linejoin="round" fill="none" marker-end="url(#marker-bty54qwxbeyqhivqwbwfo4hsa)"/></g><path d="M1450 365 1450 390 1520 390" stroke="#FFFFFF" stroke-width="15" stroke-opacity="0" fill="none"/><rect x="1445" y="360" rx="4" width="80" height="35" fill="none"/></g></g><g><g><g><defs><marker refX="11" refY="10" markerWidth="10" markerHeight="10" markerUnits="strokeWidth" orient="auto" viewBox="0 0 20 20" id="marker-6yzqzt59v3q61a7a4szz6e6hf" overflow="hidden"><path d="M1 5 11 10 1 15Z" stroke="#22242A" stroke-linecap="round" stroke-linejoin="round" fill="#22242A"/></marker></defs><path d="M1390 340 1425 340" stroke="#22242A" stroke-width="2" stroke-linecap="round" stroke-linejoin="round" fill="none" marker-end="url(#marker-6yzqzt59v3q61a7a4szz6e6hf)"/></g><path d="M1390 340 1425 340" stroke="#FFFFFF" stroke-width="15" stroke-opacity="0" fill="none"/><rect x="1385" y="335" rx="4" width="45" height="10" fill="none"/></g></g><g><g><g><defs><marker refX="11" refY="10" markerWidth="10" markerHeight="10" markerUnits="strokeWidth" orient="auto" viewBox="0 0 20 20" id="marker-3hanl19yje7cq3xibjhhlzju5" overflow="hidden"><path d="M1 5 11 10 1 15Z" stroke="#22242A" stroke-linecap="round" stroke-linejoin="round" fill="#22242A"/></marker></defs><path d="M1450 315 1450 295C1450 292.5 1452.5 290 1455 290L1800 290" stroke="#22242A" stroke-width="2" stroke-linecap="round" stroke-linejoin="round" fill="none" marker-end="url(#marker-3hanl19yje7cq3xibjhhlzju5)"/></g><path d="M1450 315 1450 290 1800 290" stroke="#FFFFFF" stroke-width="15" stroke-opacity="0" fill="none"/><rect x="1445" y="285" rx="4" width="360" height="35" fill="none"/></g></g><g><g><g><defs><marker refX="11" refY="10" markerWidth="10" markerHeight="10" markerUnits="strokeWidth" orient="auto" viewBox="0 0 20 20" id="marker-byzubok1ihlida6bi4f1obdmp" overflow="hidden"><path d="M1 5 11 10 1 15Z" stroke="#22242A" stroke-linecap="round" stroke-linejoin="round" fill="#22242A"/></marker></defs><path d="M380 340 430 340" stroke="#22242A" stroke-width="2" stroke-linecap="round" stroke-linejoin="round" fill="none" marker-end="url(#marker-byzubok1ihlida6bi4f1obdmp)"/></g><path d="M380 340 430 340" stroke="#FFFFFF" stroke-width="15" stroke-opacity="0" fill="none"/><rect x="375" y="335" rx="4" width="60" height="10" fill="none"/></g></g><g><g><g><defs><marker refX="11" refY="10" markerWidth="10" markerHeight="10" markerUnits="strokeWidth" orient="auto" viewBox="0 0 20 20" id="marker-bvyris70hdtkm972z231ccmum" overflow="hidden"><path d="M1 5 11 10 1 15Z" stroke="#22242A" stroke-linecap="round" stroke-linejoin="round" fill="#22242A"/></marker></defs><path d="M970 340 1010 340" stroke="#22242A" stroke-width="2" stroke-linecap="round" stroke-linejoin="round" fill="none" marker-end="url(#marker-bvyris70hdtkm972z231ccmum)"/></g><path d="M970 340 1010 340" stroke="#FFFFFF" stroke-width="15" stroke-opacity="0" fill="none"/><rect x="965" y="335" rx="4" width="50" height="10" fill="none"/></g></g></g></g><g><g transform="translate(160 470)"><g><rect x="0" y="0" rx="0" ry="0" width="2058" height="120" stroke="#22242A" stroke-width="1.5" stroke-linecap="round" stroke-linejoin="round" fill="#FFFFFF" fill-opacity="0.95"/><path d="M30 0 30 120" stroke="#22242A" stroke-width="1.5" stroke-linecap="round" stroke-linejoin="round" fill="none"/><text fill="#22242A" font-family="Arial,Arial" font-weight="400" font-size="12" transform="matrix(-1.83697e-16 -1 1 -1.83697e-16 0 120)"><tspan x="19.1667" y="18.6">CESU operator</tspan></text></g><rect x="-5" y="-5" rx="4" width="2068" height="130" fill="none"/><rect x="0" y="0" width="2058" height="120" stroke="#FFFFFF" stroke-width="15" stroke-opacity="0" fill="none"/><rect x="0" y="0" width="2058" height="120" stroke="#FFFFFF" stroke-width="15" stroke-opacity="0" fill="none"/><rect x="0" y="0" width="30" height="120" stroke="#FFFFFF" stroke-width="15" stroke-opacity="0" fill="none"/></g><g><g><g transform="translate(580 490)"><g><rect x="0" y="0" rx="10" ry="10" width="100" height="80" stroke="#6B3C00" stroke-width="2" stroke-linecap="round" stroke-linejoin="round" fill="#FFE0B2" fill-opacity="0.95"/><text fill="#6B3C00" font-family="Arial,Arial" font-weight="400" font-size="12"><tspan x="10.4417" y="22">11b.3 Execute </tspan><tspan x="13.7917" y="36.4">computing of </tspan><tspan x="36" y="50.8">local </tspan><tspan x="17.6667" y="65.2">transactions</tspan></text></g><rect x="0" y="0" width="100" height="80" stroke="#FFFFFF" stroke-width="15" stroke-opacity="0" fill="none"/><rect x="-5" y="-5" rx="14" width="110" height="90" fill="none"/></g></g><g><g transform="translate(730 490)"><g><rect x="0" y="0" rx="10" ry="10" width="100" height="80" stroke="#6B3C00" stroke-width="2" stroke-linecap="round" stroke-linejoin="round" fill="#FFE0B2" fill-opacity="0.95"/><text fill="#6B3C00" font-family="Arial,Arial" font-weight="400" font-size="12"><tspan x="10.4417" y="14.8">11b.4 Execute </tspan><tspan x="13.7917" y="29.2">computing of </tspan><tspan x="26" y="43.6">dynamic </tspan><tspan x="23" y="58">allocation </tspan><tspan x="20.1083" y="72.4">coefficients</tspan></text></g><rect x="0" y="0" width="100" height="80" stroke="#FFFFFF" stroke-width="15" stroke-opacity="0" fill="none"/><rect x="-5" y="-5" rx="14" width="110" height="90" fill="none"/></g></g><g><g transform="translate(430 490)"><g><rect x="0" y="0" rx="10" ry="10" width="100" height="80" stroke="#6B3C00" stroke-width="2" stroke-linecap="round" stroke-linejoin="round" fill="#FFE0B2" fill-opacity="0.95"/><text fill="#6B3C00" font-family="Arial,Arial" font-weight="400" font-size="12"><tspan x="10.4417" y="29.2">11a.2 Receive </tspan><tspan x="30.3333" y="43.6">default </tspan><tspan x="24.6667" y="58">allocation</tspan></text></g><rect x="0" y="0" width="100" height="80" stroke="#FFFFFF" stroke-width="15" stroke-opacity="0" fill="none"/><rect x="-5" y="-5" rx="14" width="110" height="90" fill="none"/></g></g><g><g transform="translate(1150 490)"><g><rect x="0" y="0" rx="10" ry="10" width="100" height="80" stroke="#6B3C00" stroke-width="2" stroke-linecap="round" stroke-linejoin="round" fill="#FFE0B2" fill-opacity="0.95"/><text fill="#6B3C00" font-family="Arial,Arial" font-weight="400" font-size="12"><tspan x="10.4417" y="29.2">11b.7 Receive </tspan><tspan x="23" y="43.6">validation </tspan><tspan x="32.3333" y="58">results</tspan></text></g><rect x="0" y="0" width="100" height="80" stroke="#FFFFFF" stroke-width="15" stroke-opacity="0" fill="none"/><rect x="-5" y="-5" rx="14" width="110" height="90" fill="none"/></g></g><g><g transform="translate(870 490)"><g><rect x="0" y="0" rx="10" ry="10" width="100" height="80" stroke="#6B3C00" stroke-width="2" stroke-linecap="round" stroke-linejoin="round" fill="#FFE0B2" fill-opacity="0.95"/><text fill="#6B3C00" font-family="Arial,Arial" font-weight="400" font-size="12"><tspan x="18.1083" y="22">11b.5 Send </tspan><tspan x="26" y="36.4">dynamic </tspan><tspan x="23" y="50.8">allocation </tspan><tspan x="20.1083" y="65.2">coefficients</tspan></text></g><rect x="0" y="0" width="100" height="80" stroke="#FFFFFF" stroke-width="15" stroke-opacity="0" fill="none"/><rect x="-5" y="-5" rx="14" width="110" height="90" fill="none"/></g></g><g><g transform="translate(1800 490)"><g><rect x="0" y="0" rx="10" ry="10" width="100" height="80" stroke="#6B3C00" stroke-width="2" stroke-linecap="round" stroke-linejoin="round" fill="#FFE0B2" fill-opacity="0.95"/><text fill="#6B3C00" font-family="Arial,Arial" font-weight="400" font-size="12"><tspan x="10.4417" y="22">11b.9 Receive </tspan><tspan x="11.6667" y="36.4">metering data </tspan><tspan x="18.3333" y="50.8">and energy </tspan><tspan x="21.6667" y="65.2">allocations</tspan></text></g><rect x="0" y="0" width="100" height="80" stroke="#FFFFFF" stroke-width="15" stroke-opacity="0" fill="none"/><rect x="-5" y="-5" rx="14" width="110" height="90" fill="none"/></g></g><g><g transform="translate(2162 512)"><g><circle cx="18" cy="18" r="18" stroke="#22242A" stroke-width="4" stroke-linecap="round" stroke-linejoin="round" fill="#FFFFFF" fill-opacity="0.95"/></g><rect x="0" y="0" width="36" height="36" stroke="#FFFFFF" stroke-width="15" stroke-opacity="0" fill="none"/><circle cx="18" cy="18" r="24" fill="none"/></g></g><g><g><g><defs><marker refX="11" refY="10" markerWidth="10" markerHeight="10" markerUnits="strokeWidth" orient="auto" viewBox="0 0 20 20" id="marker-37etbw5ssu9uybvbdi0y79r5v" overflow="hidden"><path d="M1 5 11 10 1 15Z" stroke="#22242A" stroke-linecap="round" stroke-linejoin="round" fill="#22242A"/></marker></defs><path d="M680 530 730 530" stroke="#22242A" stroke-width="2" stroke-linecap="round" stroke-linejoin="round" fill="none" marker-end="url(#marker-37etbw5ssu9uybvbdi0y79r5v)"/></g><path d="M680 530 730 530" stroke="#FFFFFF" stroke-width="15" stroke-opacity="0" fill="none"/><rect x="675" y="525" rx="4" width="60" height="10" fill="none"/></g></g><g><g><g><defs><marker refX="11" refY="10" markerWidth="10" markerHeight="10" markerUnits="strokeWidth" orient="auto" viewBox="0 0 20 20" id="marker-0x0n1jvz80jrk0xdtyomzi57w" overflow="hidden"><path d="M1 5 11 10 1 15Z" stroke="#22242A" stroke-linecap="round" stroke-linejoin="round" fill="#22242A"/></marker></defs><path d="M830 530 870 530" stroke="#22242A" stroke-width="2" stroke-linecap="round" stroke-linejoin="round" fill="none" marker-end="url(#marker-0x0n1jvz80jrk0xdtyomzi57w)"/></g><path d="M830 530 870 530" stroke="#FFFFFF" stroke-width="15" stroke-opacity="0" fill="none"/><rect x="825" y="525" rx="4" width="50" height="10" fill="none"/></g></g><g><g><g><defs><marker refX="11" refY="10" markerWidth="10" markerHeight="10" markerUnits="strokeWidth" orient="auto" viewBox="0 0 20 20" id="marker-38ib5i52igwvun1s1is122ty8" overflow="hidden"><path d="M1 5 11 10 1 15Z" stroke="#22242A" stroke-linecap="round" stroke-linejoin="round" fill="#22242A"/></marker></defs><path d="M1900 530 2162 530" stroke="#22242A" stroke-width="2" stroke-linecap="round" stroke-linejoin="round" fill="none" marker-end="url(#marker-38ib5i52igwvun1s1is122ty8)"/></g><path d="M1900 530 2162 530" stroke="#FFFFFF" stroke-width="15" stroke-opacity="0" fill="none"/><rect x="1895" y="525" rx="4" width="272" height="10" fill="none"/></g></g><g><g><g><defs><marker refX="11" refY="10" markerWidth="10" markerHeight="10" markerUnits="strokeWidth" orient="auto" viewBox="0 0 20 20" id="marker-7vnt2s1b6ifuyuf9ak3y7undl" overflow="hidden"><path d="M1 5 11 10 1 15Z" stroke="#22242A" stroke-linecap="round" stroke-linejoin="round" fill="#22242A"/></marker></defs><path d="M530 530 580 530" stroke="#22242A" stroke-width="2" stroke-linecap="round" stroke-linejoin="round" fill="none" marker-end="url(#marker-7vnt2s1b6ifuyuf9ak3y7undl)"/></g><path d="M530 530 580 530" stroke="#FFFFFF" stroke-width="15" stroke-opacity="0" fill="none"/><rect x="525" y="525" rx="4" width="60" height="10" fill="none"/></g></g></g></g><g><g transform="translate(160 750)"><g><rect x="0" y="0" rx="0" ry="0" width="2058" height="120" stroke="#22242A" stroke-width="1.5" stroke-linecap="round" stroke-linejoin="round" fill="#FFFFFF" fill-opacity="0.95"/><path d="M30 0 30 120" stroke="#22242A" stroke-width="1.5" stroke-linecap="round" stroke-linejoin="round" fill="none"/><text fill="#22242A" font-family="Arial,Arial" font-weight="400" font-size="12" transform="matrix(-1.83697e-16 -1 1 -1.83697e-16 0 120)"><tspan x="25" y="11.4">Independent </tspan><tspan x="30.1917" y="25.8">Aggregator</tspan></text></g><rect x="-5" y="-5" rx="4" width="2068" height="130" fill="none"/><rect x="0" y="0" width="2058" height="120" stroke="#FFFFFF" stroke-width="15" stroke-opacity="0" fill="none"/><rect x="0" y="0" width="2058" height="120" stroke="#FFFFFF" stroke-width="15" stroke-opacity="0" fill="none"/><rect x="0" y="0" width="30" height="120" stroke="#FFFFFF" stroke-width="15" stroke-opacity="0" fill="none"/></g><g><g><g transform="translate(1520 770)"><g><rect x="0" y="0" rx="10" ry="10" width="100" height="80" stroke="#6B3C00" stroke-width="2" stroke-linecap="round" stroke-linejoin="round" fill="#FFE0B2" fill-opacity="0.95"/><text fill="#6B3C00" font-family="Arial,Arial" font-weight="400" font-size="12"><tspan x="14.775" y="22">11b.13 Send </tspan><tspan x="38.6667" y="36.4">self-</tspan><tspan x="14.3333" y="50.8">consumption </tspan><tspan x="32.3333" y="65.2">results</tspan></text></g><rect x="0" y="0" width="100" height="80" stroke="#FFFFFF" stroke-width="15" stroke-opacity="0" fill="none"/><rect x="-5" y="-5" rx="14" width="110" height="90" fill="none"/></g></g><g><g transform="translate(1660 770)"><g><rect x="0" y="0" rx="10" ry="10" width="100" height="80" stroke="#6B3C00" stroke-width="2" stroke-linecap="round" stroke-linejoin="round" fill="#FFE0B2" fill-opacity="0.95"/><text fill="#6B3C00" font-family="Arial,Arial" font-weight="400" font-size="12"><tspan x="7.10833" y="29.2">11b.14 Execute </tspan><tspan x="13.125" y="43.6">calculation of </tspan><tspan x="10.6667" y="58">energy surplus</tspan></text></g><rect x="0" y="0" width="100" height="80" stroke="#FFFFFF" stroke-width="15" stroke-opacity="0" fill="none"/><rect x="-5" y="-5" rx="14" width="110" height="90" fill="none"/></g></g><g><g transform="translate(1800 770)"><g><rect x="0" y="0" rx="10" ry="10" width="100" height="80" stroke="#6B3C00" stroke-width="2" stroke-linecap="round" stroke-linejoin="round" fill="#FFE0B2" fill-opacity="0.95"/><text fill="#6B3C00" font-family="Arial,Arial" font-weight="400" font-size="12"><tspan x="14.775" y="29.2">11b.15 Send </tspan><tspan x="18.4583" y="43.6">payment of </tspan><tspan x="10.6667" y="58">energy surplus</tspan></text></g><rect x="0" y="0" width="100" height="80" stroke="#FFFFFF" stroke-width="15" stroke-opacity="0" fill="none"/><rect x="-5" y="-5" rx="14" width="110" height="90" fill="none"/></g></g><g><g><g><defs><marker refX="11" refY="10" markerWidth="10" markerHeight="10" markerUnits="strokeWidth" orient="auto" viewBox="0 0 20 20" id="marker-2zwlrde73oap9cwtku4xanf3z" overflow="hidden"><path d="M1 5 11 10 1 15Z" stroke="#22242A" stroke-linecap="round" stroke-linejoin="round" fill="#22242A"/></marker></defs><path d="M1620 810 1660 810" stroke="#22242A" stroke-width="2" stroke-linecap="round" stroke-linejoin="round" fill="none" marker-end="url(#marker-2zwlrde73oap9cwtku4xanf3z)"/></g><path d="M1620 810 1660 810" stroke="#FFFFFF" stroke-width="15" stroke-opacity="0" fill="none"/><rect x="1615" y="805" rx="4" width="50" height="10" fill="none"/></g></g><g><g><g><defs><marker refX="11" refY="10" markerWidth="10" markerHeight="10" markerUnits="strokeWidth" orient="auto" viewBox="0 0 20 20" id="marker-05hcelbb49syzbltncji7il2u" overflow="hidden"><path d="M1 5 11 10 1 15Z" stroke="#22242A" stroke-linecap="round" stroke-linejoin="round" fill="#22242A"/></marker></defs><path d="M1760 810 1800 810" stroke="#22242A" stroke-width="2" stroke-linecap="round" stroke-linejoin="round" fill="none" marker-end="url(#marker-05hcelbb49syzbltncji7il2u)"/></g><path d="M1760 810 1800 810" stroke="#FFFFFF" stroke-width="15" stroke-opacity="0" fill="none"/><rect x="1755" y="805" rx="4" width="50" height="10" fill="none"/></g></g></g></g><g><g transform="translate(160 890)"><g><rect x="0" y="0" rx="0" ry="0" width="2058" height="220" stroke="#22242A" stroke-width="1.5" stroke-linecap="round" stroke-linejoin="round" fill="#FFFFFF" fill-opacity="0.95"/><path d="M30 0 30 220" stroke="#22242A" stroke-width="1.5" stroke-linecap="round" stroke-linejoin="round" fill="none"/><text fill="#22242A" font-family="Arial,Arial" font-weight="400" font-size="12" transform="matrix(-1.83697e-16 -1 1 -1.83697e-16 0 220)"><tspan x="69.5" y="18.6">CESU member</tspan></text></g><rect x="-5" y="-5" rx="4" width="2068" height="230" fill="none"/><rect x="0" y="0" width="2058" height="220" stroke="#FFFFFF" stroke-width="15" stroke-opacity="0" fill="none"/><rect x="0" y="0" width="2058" height="220" stroke="#FFFFFF" stroke-width="15" stroke-opacity="0" fill="none"/><rect x="0" y="0" width="30" height="220" stroke="#FFFFFF" stroke-width="15" stroke-opacity="0" fill="none"/></g><g><g><g transform="translate(1800 1010)"><g><rect x="0" y="0" rx="10" ry="10" width="100" height="80" stroke="#6B3C00" stroke-width="2" stroke-linecap="round" stroke-linejoin="round" fill="#FFE0B2" fill-opacity="0.95"/><text fill="#6B3C00" font-family="Arial,Arial" font-weight="400" font-size="12"><tspan x="7.10833" y="29.2">11b.15 Receive </tspan><tspan x="18.4583" y="43.6">payment of </tspan><tspan x="10.6667" y="58">energy surplus</tspan></text></g><rect x="0" y="0" width="100" height="80" stroke="#FFFFFF" stroke-width="15" stroke-opacity="0" fill="none"/><rect x="-5" y="-5" rx="14" width="110" height="90" fill="none"/></g></g><g><g transform="translate(1940 910)"><g><rect x="0" y="0" rx="10" ry="10" width="100" height="80" stroke="#6B3C00" stroke-width="2" stroke-linecap="round" stroke-linejoin="round" fill="#FFE0B2" fill-opacity="0.95"/><text fill="#6B3C00" font-family="Arial,Arial" font-weight="400" font-size="12"><tspan x="7.10833" y="36.4">11b.12 Receive </tspan><tspan x="22.6667" y="50.8">energy bill</tspan></text></g><rect x="0" y="0" width="100" height="80" stroke="#FFFFFF" stroke-width="15" stroke-opacity="0" fill="none"/><rect x="-5" y="-5" rx="14" width="110" height="90" fill="none"/></g></g><g><g transform="translate(2075 975)"><g><path d="M25 0 50 25 25 50 0 25Z" stroke="#205022" stroke-width="2" stroke-linecap="round" stroke-linejoin="round" fill="#C8E6C9" fill-opacity="0.95"/><path d="M23 10 23 22.5 10.5 22.5 10.5 27.5 23 27.5 23 40 28 40 28 27.5 40.5 27.5 40.5 22.5 28 22.5 28 10 23 10Z" stroke="#205022" stroke-linecap="round" stroke-linejoin="round" fill="#205022"/></g><rect x="0" y="0" width="50" height="50" stroke="#FFFFFF" stroke-width="15" stroke-opacity="0" fill="none"/><rect x="2" y="2" rx="4" width="46" height="46" fill="none"/></g></g><g><g transform="translate(2162 982)"><g><circle cx="18" cy="18" r="18" stroke="#22242A" stroke-width="4" stroke-linecap="round" stroke-linejoin="round" fill="#FFFFFF" fill-opacity="0.95"/></g><rect x="0" y="0" width="36" height="36" stroke="#FFFFFF" stroke-width="15" stroke-opacity="0" fill="none"/><circle cx="18" cy="18" r="24" fill="none"/></g></g><g><g><g><defs><marker refX="11" refY="10" markerWidth="10" markerHeight="10" markerUnits="strokeWidth" orient="auto" viewBox="0 0 20 20" id="marker-7xa68hvdowkngrrk4d7izfffy" overflow="hidden"><path d="M1 5 11 10 1 15Z" stroke="#22242A" stroke-linecap="round" stroke-linejoin="round" fill="#22242A"/></marker></defs><path d="M2040 950 2095 950C2097.5 950 2100 952.5 2100 955L2100 975" stroke="#22242A" stroke-width="2" stroke-linecap="round" stroke-linejoin="round" fill="none" marker-end="url(#marker-7xa68hvdowkngrrk4d7izfffy)"/></g><path d="M2040 950 2100 950 2100 975" stroke="#FFFFFF" stroke-width="15" stroke-opacity="0" fill="none"/><rect x="2035" y="945" rx="4" width="70" height="35" fill="none"/></g></g><g><g><g><defs><marker refX="11" refY="10" markerWidth="10" markerHeight="10" markerUnits="strokeWidth" orient="auto" viewBox="0 0 20 20" id="marker-7ibqu3mpevrmoaos03mj685y6" overflow="hidden"><path d="M1 5 11 10 1 15Z" stroke="#22242A" stroke-linecap="round" stroke-linejoin="round" fill="#22242A"/></marker></defs><path d="M1900 1050 2095 1050C2097.5 1050 2100 1047.5 2100 1045L2100 1025" stroke="#22242A" stroke-width="2" stroke-linecap="round" stroke-linejoin="round" fill="none" marker-end="url(#marker-7ibqu3mpevrmoaos03mj685y6)"/></g><path d="M1900 1050 2100 1050 2100 1025" stroke="#FFFFFF" stroke-width="15" stroke-opacity="0" fill="none"/><rect x="1895" y="1020" rx="4" width="210" height="35" fill="none"/></g></g><g><g><g><defs><marker refX="11" refY="10" markerWidth="10" markerHeight="10" markerUnits="strokeWidth" orient="auto" viewBox="0 0 20 20" id="marker-6b9v73rz0zlh2hkvqmbprojvm" overflow="hidden"><path d="M1 5 11 10 1 15Z" stroke="#22242A" stroke-linecap="round" stroke-linejoin="round" fill="#22242A"/></marker></defs><path d="M2125 1000 2162 1000" stroke="#22242A" stroke-width="2" stroke-linecap="round" stroke-linejoin="round" fill="none" marker-end="url(#marker-6b9v73rz0zlh2hkvqmbprojvm)"/></g><path d="M2125 1000 2162 1000" stroke="#FFFFFF" stroke-width="15" stroke-opacity="0" fill="none"/><rect x="2120" y="995" rx="4" width="47" height="10" fill="none"/></g></g></g></g><g><g transform="translate(160 610)"><g><rect x="0" y="0" rx="0" ry="0" width="2058" height="120" stroke="#22242A" stroke-width="1.5" stroke-linecap="round" stroke-linejoin="round" fill="#FFFFFF" fill-opacity="0.95"/><path d="M30 0 30 120" stroke="#22242A" stroke-width="1.5" stroke-linecap="round" stroke-linejoin="round" fill="none"/><text fill="#22242A" font-family="Arial,Arial" font-weight="400" font-size="12" transform="matrix(-1.83697e-16 -1 1 -1.83697e-16 0 120)"><tspan x="37.8333" y="18.6">Supplier</tspan></text></g><rect x="-5" y="-5" rx="4" width="2068" height="130" fill="none"/><rect x="0" y="0" width="2058" height="120" stroke="#FFFFFF" stroke-width="15" stroke-opacity="0" fill="none"/><rect x="0" y="0" width="2058" height="120" stroke="#FFFFFF" stroke-width="15" stroke-opacity="0" fill="none"/><rect x="0" y="0" width="30" height="120" stroke="#FFFFFF" stroke-width="15" stroke-opacity="0" fill="none"/></g><g><g><g transform="translate(1800 630)"><g><rect x="0" y="0" rx="10" ry="10" width="100" height="80" stroke="#6B3C00" stroke-width="2" stroke-linecap="round" stroke-linejoin="round" fill="#FFE0B2" fill-opacity="0.95"/><text fill="#6B3C00" font-family="Arial,Arial" font-weight="400" font-size="12"><tspan x="7.10833" y="22">11b.10 Receive </tspan><tspan x="38.6667" y="36.4">self-</tspan><tspan x="14.3333" y="50.8">consumption </tspan><tspan x="32.3333" y="65.2">results</tspan></text></g><rect x="0" y="0" width="100" height="80" stroke="#FFFFFF" stroke-width="15" stroke-opacity="0" fill="none"/><rect x="-5" y="-5" rx="14" width="110" height="90" fill="none"/></g></g><g><g transform="translate(1940 630)"><g><rect x="0" y="0" rx="10" ry="10" width="100" height="80" stroke="#6B3C00" stroke-width="2" stroke-linecap="round" stroke-linejoin="round" fill="#FFE0B2" fill-opacity="0.95"/><text fill="#6B3C00" font-family="Arial,Arial" font-weight="400" font-size="12"><tspan x="7.55" y="29.2">11b.11 Execute </tspan><tspan x="13.125" y="43.6">calculation of </tspan><tspan x="19.6667" y="58">energy bills</tspan></text></g><rect x="0" y="0" width="100" height="80" stroke="#FFFFFF" stroke-width="15" stroke-opacity="0" fill="none"/><rect x="-5" y="-5" rx="14" width="110" height="90" fill="none"/></g></g><g><g transform="translate(2080 630)"><g><rect x="0" y="0" rx="10" ry="10" width="100" height="80" stroke="#6B3C00" stroke-width="2" stroke-linecap="round" stroke-linejoin="round" fill="#FFE0B2" fill-opacity="0.95"/><text fill="#6B3C00" font-family="Arial,Arial" font-weight="400" font-size="12"><tspan x="14.775" y="36.4">11b.12 Send </tspan><tspan x="22.6667" y="50.8">energy bill</tspan></text></g><rect x="0" y="0" width="100" height="80" stroke="#FFFFFF" stroke-width="15" stroke-opacity="0" fill="none"/><rect x="-5" y="-5" rx="14" width="110" height="90" fill="none"/></g></g><g><g><g><defs><marker refX="11" refY="10" markerWidth="10" markerHeight="10" markerUnits="strokeWidth" orient="auto" viewBox="0 0 20 20" id="marker-39pavrno58m8i7u2f5jdxz7ws" overflow="hidden"><path d="M1 5 11 10 1 15Z" stroke="#22242A" stroke-linecap="round" stroke-linejoin="round" fill="#22242A"/></marker></defs><path d="M1900 670 1940 670" stroke="#22242A" stroke-width="2" stroke-linecap="round" stroke-linejoin="round" fill="none" marker-end="url(#marker-39pavrno58m8i7u2f5jdxz7ws)"/></g><path d="M1900 670 1940 670" stroke="#FFFFFF" stroke-width="15" stroke-opacity="0" fill="none"/><rect x="1895" y="665" rx="4" width="50" height="10" fill="none"/></g></g><g><g><g><defs><marker refX="11" refY="10" markerWidth="10" markerHeight="10" markerUnits="strokeWidth" orient="auto" viewBox="0 0 20 20" id="marker-ceocyh49zlr005gdpf12hbato" overflow="hidden"><path d="M1 5 11 10 1 15Z" stroke="#22242A" stroke-linecap="round" stroke-linejoin="round" fill="#22242A"/></marker></defs><path d="M2040 670 2080 670" stroke="#22242A" stroke-width="2" stroke-linecap="round" stroke-linejoin="round" fill="none" marker-end="url(#marker-ceocyh49zlr005gdpf12hbato)"/></g><path d="M2040 670 2080 670" stroke="#FFFFFF" stroke-width="15" stroke-opacity="0" fill="none"/><rect x="2035" y="665" rx="4" width="50" height="10" fill="none"/></g></g></g></g><g><g><g><defs><marker refX="8.5" refY="5" markerWidth="20" markerHeight="20" markerUnits="strokeWidth" orient="auto" viewBox="0 0 20 20" id="marker-d386eywpfm01zcf9hdkveq48f" overflow="hidden"><path d="M1 5 1 2 8 5 1 8Z" stroke="#22242A" stroke-linecap="round" stroke-linejoin="round" stroke-dasharray="10000 1" fill="#FFFFFF"/></marker><marker refX="6" refY="6" markerWidth="20" markerHeight="20" markerUnits="strokeWidth" orient="auto" viewBox="0 0 20 20" id="marker-19t1lhrtdbzxec96j3kkf4yzi" overflow="hidden"><circle cx="6" cy="6" r="3.5" stroke="#22242A" stroke-linecap="round" stroke-linejoin="round" stroke-dasharray="10000 1" fill="#FFFFFF"/></marker></defs><path d="M1200 380 1200 490" stroke="#22242A" stroke-width="1.5" stroke-linecap="round" stroke-linejoin="round" stroke-dasharray="10 11" fill="none" marker-start="url(#marker-19t1lhrtdbzxec96j3kkf4yzi)" marker-end="url(#marker-d386eywpfm01zcf9hdkveq48f)"/></g><path d="M1200 380 1200 490" stroke="#FFFFFF" stroke-width="15" stroke-opacity="0" fill="none"/><rect x="1195" y="375" rx="4" width="10" height="120" fill="none"/></g></g><g><g><g><defs><marker refX="8.5" refY="5" markerWidth="20" markerHeight="20" markerUnits="strokeWidth" orient="auto" viewBox="0 0 20 20" id="marker-axvjm6r0agal5hebxxpwlyiu5" overflow="hidden"><path d="M1 5 1 2 8 5 1 8Z" stroke="#22242A" stroke-linecap="round" stroke-linejoin="round" stroke-dasharray="10000 1" fill="#FFFFFF"/></marker><marker refX="6" refY="6" markerWidth="20" markerHeight="20" markerUnits="strokeWidth" orient="auto" viewBox="0 0 20 20" id="marker-1z20ufrxv2b8hwj50wu31l9qs" overflow="hidden"><circle cx="6" cy="6" r="3.5" stroke="#22242A" stroke-linecap="round" stroke-linejoin="round" stroke-dasharray="10000 1" fill="#FFFFFF"/></marker></defs><path d="M1850 330 1850 490" stroke="#22242A" stroke-width="1.5" stroke-linecap="round" stroke-linejoin="round" stroke-dasharray="10 11" fill="none" marker-start="url(#marker-1z20ufrxv2b8hwj50wu31l9qs)" marker-end="url(#marker-axvjm6r0agal5hebxxpwlyiu5)"/></g><path d="M1850 330 1850 490" stroke="#FFFFFF" stroke-width="15" stroke-opacity="0" fill="none"/><rect x="1845" y="325" rx="4" width="10" height="170" fill="none"/></g></g><g><g><g><defs><marker refX="8.5" refY="5" markerWidth="20" markerHeight="20" markerUnits="strokeWidth" orient="auto" viewBox="0 0 20 20" id="marker-3tvjmt4oj23jpbh7mt05i2dt6" overflow="hidden"><path d="M1 5 1 2 8 5 1 8Z" stroke="#22242A" stroke-linecap="round" stroke-linejoin="round" stroke-dasharray="10000 1" fill="#FFFFFF"/></marker><marker refX="6" refY="6" markerWidth="20" markerHeight="20" markerUnits="strokeWidth" orient="auto" viewBox="0 0 20 20" id="marker-b0md3cq8pya8h1k9rkqufrbdi" overflow="hidden"><circle cx="6" cy="6" r="3.5" stroke="#22242A" stroke-linecap="round" stroke-linejoin="round" stroke-dasharray="10000 1" fill="#FFFFFF"/></marker></defs><path d="M2130 710 2130 805C2130 807.5 2127.5 810 2125 810L1995 810C1992.5 810 1990 812.5 1990 815L1990 910" stroke="#22242A" stroke-width="1.5" stroke-linecap="round" stroke-linejoin="round" stroke-dasharray="10 11" fill="none" marker-start="url(#marker-b0md3cq8pya8h1k9rkqufrbdi)" marker-end="url(#marker-3tvjmt4oj23jpbh7mt05i2dt6)"/></g><path d="M2130 710 2130 810 1990 810 1990 910" stroke="#FFFFFF" stroke-width="15" stroke-opacity="0" fill="none"/><rect x="1985" y="705" rx="4" width="150" height="210" fill="none"/></g></g><g><g><g><defs><marker refX="8.5" refY="5" markerWidth="20" markerHeight="20" markerUnits="strokeWidth" orient="auto" viewBox="0 0 20 20" id="marker-0vjlk1fbdclw53tjheu2yf9td" overflow="hidden"><path d="M1 5 1 2 8 5 1 8Z" stroke="#22242A" stroke-linecap="round" stroke-linejoin="round" stroke-dasharray="10000 1" fill="#FFFFFF"/></marker><marker refX="6" refY="6" markerWidth="20" markerHeight="20" markerUnits="strokeWidth" orient="auto" viewBox="0 0 20 20" id="marker-0fi1xzyst3nzn8r26j3nrs376" overflow="hidden"><circle cx="6" cy="6" r="3.5" stroke="#22242A" stroke-linecap="round" stroke-linejoin="round" stroke-dasharray="10000 1" fill="#FFFFFF"/></marker></defs><path d="M330 190 330 300" stroke="#22242A" stroke-width="1.5" stroke-linecap="round" stroke-linejoin="round" stroke-dasharray="10 11" fill="none" marker-start="url(#marker-0fi1xzyst3nzn8r26j3nrs376)" marker-end="url(#marker-0vjlk1fbdclw53tjheu2yf9td)"/></g><path d="M330 190 330 300" stroke="#FFFFFF" stroke-width="15" stroke-opacity="0" fill="none"/><rect x="325" y="185" rx="4" width="10" height="120" fill="none"/></g></g><g><g><g><defs><marker refX="8.5" refY="5" markerWidth="20" markerHeight="20" markerUnits="strokeWidth" orient="auto" viewBox="0 0 20 20" id="marker-ay352dldrgkk4z8exvcq3zuun" overflow="hidden"><path d="M1 5 1 2 8 5 1 8Z" stroke="#22242A" stroke-linecap="round" stroke-linejoin="round" stroke-dasharray="10000 1" fill="#FFFFFF"/></marker><marker refX="6" refY="6" markerWidth="20" markerHeight="20" markerUnits="strokeWidth" orient="auto" viewBox="0 0 20 20" id="marker-3aeyt6bidougy5x898ey10btj" overflow="hidden"><circle cx="6" cy="6" r="3.5" stroke="#22242A" stroke-linecap="round" stroke-linejoin="round" stroke-dasharray="10000 1" fill="#FFFFFF"/></marker></defs><path d="M480 380 480 490" stroke="#22242A" stroke-width="1.5" stroke-linecap="round" stroke-linejoin="round" stroke-dasharray="10 11" fill="none" marker-start="url(#marker-3aeyt6bidougy5x898ey10btj)" marker-end="url(#marker-ay352dldrgkk4z8exvcq3zuun)"/></g><path d="M480 380 480 490" stroke="#FFFFFF" stroke-width="15" stroke-opacity="0" fill="none"/><rect x="475" y="375" rx="4" width="10" height="120" fill="none"/></g></g><g><g><g><defs><marker refX="8.5" refY="5" markerWidth="20" markerHeight="20" markerUnits="strokeWidth" orient="auto" viewBox="0 0 20 20" id="marker-ejcempmazqztod2yk4s80f0vm" overflow="hidden"><path d="M1 5 1 2 8 5 1 8Z" stroke="#22242A" stroke-linecap="round" stroke-linejoin="round" stroke-dasharray="10000 1" fill="#FFFFFF"/></marker><marker refX="6" refY="6" markerWidth="20" markerHeight="20" markerUnits="strokeWidth" orient="auto" viewBox="0 0 20 20" id="marker-2ldfry9qjfnp9qczn9ukfpwcb" overflow="hidden"><circle cx="6" cy="6" r="3.5" stroke="#22242A" stroke-linecap="round" stroke-linejoin="round" stroke-dasharray="10000 1" fill="#FFFFFF"/></marker></defs><path d="M920 490 920 380" stroke="#22242A" stroke-width="1.5" stroke-linecap="round" stroke-linejoin="round" stroke-dasharray="10 11" fill="none" marker-start="url(#marker-2ldfry9qjfnp9qczn9ukfpwcb)" marker-end="url(#marker-ejcempmazqztod2yk4s80f0vm)"/></g><path d="M920 490 920 380" stroke="#FFFFFF" stroke-width="15" stroke-opacity="0" fill="none"/><rect x="915" y="375" rx="4" width="10" height="120" fill="none"/></g></g><g><g><g><defs><marker refX="8.5" refY="5" markerWidth="20" markerHeight="20" markerUnits="strokeWidth" orient="auto" viewBox="0 0 20 20" id="marker-89kd5pvfx844du6cima2kq996" overflow="hidden"><path d="M1 5 1 2 8 5 1 8Z" stroke="#22242A" stroke-linecap="round" stroke-linejoin="round" stroke-dasharray="10000 1" fill="#FFFFFF"/></marker><marker refX="6" refY="6" markerWidth="20" markerHeight="20" markerUnits="strokeWidth" orient="auto" viewBox="0 0 20 20" id="marker-as68xjocksqp3h7g07pn7y5eh" overflow="hidden"><circle cx="6" cy="6" r="3.5" stroke="#22242A" stroke-linecap="round" stroke-linejoin="round" stroke-dasharray="10000 1" fill="#FFFFFF"/></marker></defs><path d="M1710 380 1710 675C1710 677.5 1712.5 680 1715 680L1800 680" stroke="#22242A" stroke-width="1.5" stroke-linecap="round" stroke-linejoin="round" stroke-dasharray="10 11" fill="none" marker-start="url(#marker-as68xjocksqp3h7g07pn7y5eh)" marker-end="url(#marker-89kd5pvfx844du6cima2kq996)"/></g><path d="M1710 380 1710 680 1800 680" stroke="#FFFFFF" stroke-width="15" stroke-opacity="0" fill="none"/><rect x="1705" y="375" rx="4" width="100" height="310" fill="none"/></g></g><g><g><g><defs><marker refX="8.5" refY="5" markerWidth="20" markerHeight="20" markerUnits="strokeWidth" orient="auto" viewBox="0 0 20 20" id="marker-ec2novk890ppd1m1wuqh8yv1m" overflow="hidden"><path d="M1 5 1 2 8 5 1 8Z" stroke="#22242A" stroke-linecap="round" stroke-linejoin="round" stroke-dasharray="10000 1" fill="#FFFFFF"/></marker><marker refX="6" refY="6" markerWidth="20" markerHeight="20" markerUnits="strokeWidth" orient="auto" viewBox="0 0 20 20" id="marker-1rv4qjn16qwcsnzgyzp1wt7xt" overflow="hidden"><circle cx="6" cy="6" r="3.5" stroke="#22242A" stroke-linecap="round" stroke-linejoin="round" stroke-dasharray="10000 1" fill="#FFFFFF"/></marker></defs><path d="M1570 430 1570 770" stroke="#22242A" stroke-width="1.5" stroke-linecap="round" stroke-linejoin="round" stroke-dasharray="10 11" fill="none" marker-start="url(#marker-1rv4qjn16qwcsnzgyzp1wt7xt)" marker-end="url(#marker-ec2novk890ppd1m1wuqh8yv1m)"/></g><path d="M1570 430 1570 770" stroke="#FFFFFF" stroke-width="15" stroke-opacity="0" fill="none"/><rect x="1565" y="425" rx="4" width="10" height="350" fill="none"/></g></g><g><g><g><defs><marker refX="8.5" refY="5" markerWidth="20" markerHeight="20" markerUnits="strokeWidth" orient="auto" viewBox="0 0 20 20" id="marker-dztnb7zox6lohzzq2i4es3m5o" overflow="hidden"><path d="M1 5 1 2 8 5 1 8Z" stroke="#22242A" stroke-linecap="round" stroke-linejoin="round" stroke-dasharray="10000 1" fill="#FFFFFF"/></marker><marker refX="6" refY="6" markerWidth="20" markerHeight="20" markerUnits="strokeWidth" orient="auto" viewBox="0 0 20 20" id="marker-b0xfcfbosq1cmnwubc2my1ayb" overflow="hidden"><circle cx="6" cy="6" r="3.5" stroke="#22242A" stroke-linecap="round" stroke-linejoin="round" stroke-dasharray="10000 1" fill="#FFFFFF"/></marker></defs><path d="M1850 850 1850 1010" stroke="#22242A" stroke-width="1.5" stroke-linecap="round" stroke-linejoin="round" stroke-dasharray="10 11" fill="none" marker-start="url(#marker-b0xfcfbosq1cmnwubc2my1ayb)" marker-end="url(#marker-dztnb7zox6lohzzq2i4es3m5o)"/></g><path d="M1850 850 1850 1010" stroke="#FFFFFF" stroke-width="15" stroke-opacity="0" fill="none"/><rect x="1845" y="845" rx="4" width="10" height="170" fill="none"/></g></g></svg>