<svg width="750" height="550" viewBox="155 105 750 550" xmlns="http://www.w3.org/2000/svg" xmlns:xlink="http://www.w3.org/1999/xlink" overflow="hidden"><defs><pattern width="10" height="10" patternUnits="userSpaceOnUse" id="djs-grid-pattern-726256" overflow="hidden"><circle cx="0.5" cy="0.5" r="0.5" fill="#CCCCCC"/></pattern></defs><g><g transform="translate(160 110)"><g><rect x="0" y="0" rx="0" ry="0" width="740" height="120" stroke="#22242A" stroke-width="1.5" stroke-linecap="round" stroke-linejoin="round" fill="#FFFFFF" fill-opacity="0.95"/><path d="M30 0 30 120" stroke="#22242A" stroke-width="1.5" stroke-linecap="round" stroke-linejoin="round" fill="none"/><text fill="#22242A" font-family="Arial,Arial" font-weight="400" font-size="12" transform="matrix(-1.83697e-16 -1 1 -1.83697e-16 0 120)"><tspan x="23" y="11.4">Metered data </tspan><tspan x="25.1667" y="25.8">administrator</tspan></text></g><rect x="0" y="0" width="740" height="120" stroke="#FFFFFF" stroke-width="15" stroke-opacity="0" fill="none"/><rect x="0" y="0" width="740" height="120" stroke="#FFFFFF" stroke-width="15" stroke-opacity="0" fill="none"/><rect x="0" y="0" width="30" height="120" stroke="#FFFFFF" stroke-width="15" stroke-opacity="0" fill="none"/><rect x="-5" y="-5" rx="4" width="750" height="130" fill="none"/></g><g><g><g transform="translate(202 152)"><g><circle cx="18" cy="18" r="18" stroke="#22242A" stroke-width="2" stroke-linecap="round" stroke-linejoin="round" fill="#FFFFFF" fill-opacity="0.95"/></g><rect x="0" y="0" width="36" height="36" stroke="#FFFFFF" stroke-width="15" stroke-opacity="0" fill="none"/><circle cx="18" cy="18" r="23" fill="none"/></g></g><g><g transform="translate(280 130)"><g><rect x="0" y="0" rx="10" ry="10" width="100" height="80" stroke="#6B3C00" stroke-width="2" stroke-linecap="round" stroke-linejoin="round" fill="#FFE0B2" fill-opacity="0.95"/><text fill="#6B3C00" font-family="Arial,Arial" font-weight="400" font-size="12"><tspan x="17.6667" y="36.4">10a.1 Send </tspan><tspan x="13.3333" y="50.8">metering data</tspan></text></g><rect x="0" y="0" width="100" height="80" stroke="#FFFFFF" stroke-width="15" stroke-opacity="0" fill="none"/><rect x="-5" y="-5" rx="14" width="110" height="90" fill="none"/></g></g><g><g><g><defs><marker refX="11" refY="10" markerWidth="10" markerHeight="10" markerUnits="strokeWidth" orient="auto" viewBox="0 0 20 20" id="marker-ay5ojvi8fsjh2uuggla97yv1i" overflow="hidden"><path d="M1 5 11 10 1 15Z" stroke="#22242A" stroke-linecap="round" stroke-linejoin="round" fill="#22242A"/></marker></defs><path d="M238 170 280 170" stroke="#22242A" stroke-width="2" stroke-linecap="round" stroke-linejoin="round" fill="none" marker-end="url(#marker-ay5ojvi8fsjh2uuggla97yv1i)"/></g><path d="M238 170 280 170" stroke="#FFFFFF" stroke-width="15" stroke-opacity="0" fill="none"/><rect x="233" y="165" rx="4" width="52" height="10" fill="none"/></g></g></g></g><g><g transform="translate(160 250)"><g><rect x="0" y="0" rx="0" ry="0" width="740" height="120" stroke="#22242A" stroke-width="1.5" stroke-linecap="round" stroke-linejoin="round" fill="#FFFFFF" fill-opacity="0.95"/><path d="M30 0 30 120" stroke="#22242A" stroke-width="1.5" stroke-linecap="round" stroke-linejoin="round" fill="none"/><text fill="#22242A" font-family="Arial,Arial" font-weight="400" font-size="12" transform="matrix(-1.83697e-16 -1 1 -1.83697e-16 0 120)"><tspan x="4" y="11.4">Flexibility requesting </tspan><tspan x="46.6667" y="25.8">party</tspan></text></g><rect x="-5" y="-5" rx="4" width="750" height="130" fill="none"/><rect x="0" y="0" width="740" height="120" stroke="#FFFFFF" stroke-width="15" stroke-opacity="0" fill="none"/><rect x="0" y="0" width="740" height="120" stroke="#FFFFFF" stroke-width="15" stroke-opacity="0" fill="none"/><rect x="0" y="0" width="30" height="120" stroke="#FFFFFF" stroke-width="15" stroke-opacity="0" fill="none"/></g><g><g><g transform="translate(420 270)"><g><rect x="0" y="0" rx="10" ry="10" width="100" height="80" stroke="#6B3C00" stroke-width="2" stroke-linecap="round" stroke-linejoin="round" fill="#FFE0B2" fill-opacity="0.95"/><text fill="#6B3C00" font-family="Arial,Arial" font-weight="400" font-size="12"><tspan x="16.6583" y="29.2">10a.2 Verify </tspan><tspan x="9" y="43.6">CESU flexibility</tspan><tspan x="26" y="58">provision</tspan></text></g><rect x="0" y="0" width="100" height="80" stroke="#FFFFFF" stroke-width="15" stroke-opacity="0" fill="none"/><rect x="-5" y="-5" rx="14" width="110" height="90" fill="none"/></g></g><g><g transform="translate(280 270)"><g><rect x="0" y="0" rx="10" ry="10" width="100" height="80" stroke="#6B3C00" stroke-width="2" stroke-linecap="round" stroke-linejoin="round" fill="#FFE0B2" fill-opacity="0.95"/><text fill="#6B3C00" font-family="Arial,Arial" font-weight="400" font-size="12"><tspan x="10" y="36.4">10a.1 Receive </tspan><tspan x="13.3333" y="50.8">metering data</tspan></text></g><rect x="0" y="0" width="100" height="80" stroke="#FFFFFF" stroke-width="15" stroke-opacity="0" fill="none"/><rect x="-5" y="-5" rx="14" width="110" height="90" fill="none"/></g></g><g><g transform="translate(560 270)"><g><rect x="0" y="0" rx="10" ry="10" width="100" height="80" stroke="#6B3C00" stroke-width="2" stroke-linecap="round" stroke-linejoin="round" fill="#FFE0B2" fill-opacity="0.95"/><text fill="#6B3C00" font-family="Arial,Arial" font-weight="400" font-size="12"><tspan x="17.6667" y="29.2">10a.3 Send </tspan><tspan x="19" y="43.6">results and </tspan><tspan x="11.6667" y="58">remunerations</tspan></text></g><rect x="0" y="0" width="100" height="80" stroke="#FFFFFF" stroke-width="15" stroke-opacity="0" fill="none"/><rect x="-5" y="-5" rx="14" width="110" height="90" fill="none"/></g></g><g><g><g><defs><marker refX="11" refY="10" markerWidth="10" markerHeight="10" markerUnits="strokeWidth" orient="auto" viewBox="0 0 20 20" id="marker-4rky451qz5n14y4jv3lnwausx" overflow="hidden"><path d="M1 5 11 10 1 15Z" stroke="#22242A" stroke-linecap="round" stroke-linejoin="round" fill="#22242A"/></marker></defs><path d="M520 310 560 310" stroke="#22242A" stroke-width="2" stroke-linecap="round" stroke-linejoin="round" fill="none" marker-end="url(#marker-4rky451qz5n14y4jv3lnwausx)"/></g><path d="M520 310 560 310" stroke="#FFFFFF" stroke-width="15" stroke-opacity="0" fill="none"/><rect x="515" y="305" rx="4" width="50" height="10" fill="none"/></g></g><g><g><g><defs><marker refX="11" refY="10" markerWidth="10" markerHeight="10" markerUnits="strokeWidth" orient="auto" viewBox="0 0 20 20" id="marker-4ttr6may5r5vetd0ye3sycph3" overflow="hidden"><path d="M1 5 11 10 1 15Z" stroke="#22242A" stroke-linecap="round" stroke-linejoin="round" fill="#22242A"/></marker></defs><path d="M380 310 420 310" stroke="#22242A" stroke-width="2" stroke-linecap="round" stroke-linejoin="round" fill="none" marker-end="url(#marker-4ttr6may5r5vetd0ye3sycph3)"/></g><path d="M380 310 420 310" stroke="#FFFFFF" stroke-width="15" stroke-opacity="0" fill="none"/><rect x="375" y="305" rx="4" width="50" height="10" fill="none"/></g></g></g></g><g><g transform="translate(160 390)"><g><rect x="0" y="0" rx="0" ry="0" width="740" height="120" stroke="#22242A" stroke-width="1.5" stroke-linecap="round" stroke-linejoin="round" fill="#FFFFFF" fill-opacity="0.95"/><path d="M30 0 30 120" stroke="#22242A" stroke-width="1.5" stroke-linecap="round" stroke-linejoin="round" fill="none"/><text fill="#22242A" font-family="Arial,Arial" font-weight="400" font-size="12" transform="matrix(-1.83697e-16 -1 1 -1.83697e-16 0 120)"><tspan x="13" y="11.4">Flexibility service </tspan><tspan x="38.1667" y="25.8">provider</tspan></text></g><rect x="0" y="0" width="740" height="120" stroke="#FFFFFF" stroke-width="15" stroke-opacity="0" fill="none"/><rect x="0" y="0" width="740" height="120" stroke="#FFFFFF" stroke-width="15" stroke-opacity="0" fill="none"/><rect x="0" y="0" width="30" height="120" stroke="#FFFFFF" stroke-width="15" stroke-opacity="0" fill="none"/><rect x="-5" y="-5" rx="4" width="750" height="130" fill="none"/></g><g><g><g transform="translate(700 410)"><g><rect x="0" y="0" rx="10" ry="10" width="100" height="80" stroke="#6B3C00" stroke-width="2" stroke-linecap="round" stroke-linejoin="round" fill="#FFE0B2" fill-opacity="0.95"/><text fill="#6B3C00" font-family="Arial,Arial" font-weight="400" font-size="12"><tspan x="17.6667" y="22">10a.4 Send </tspan><tspan x="12.3333" y="36.4">CESU results </tspan><tspan x="38.3333" y="50.8">and </tspan><tspan x="11.6667" y="65.2">remunerations</tspan></text></g><rect x="0" y="0" width="100" height="80" stroke="#FFFFFF" stroke-width="15" stroke-opacity="0" fill="none"/><rect x="-5" y="-5" rx="14" width="110" height="90" fill="none"/></g></g><g><g transform="translate(560 410)"><g><rect x="0" y="0" rx="10" ry="10" width="100" height="80" stroke="#6B3C00" stroke-width="2" stroke-linecap="round" stroke-linejoin="round" fill="#FFE0B2" fill-opacity="0.95"/><text fill="#6B3C00" font-family="Arial,Arial" font-weight="400" font-size="12"><tspan x="10" y="29.2">10a.3 Receive </tspan><tspan x="19" y="43.6">results and </tspan><tspan x="11.6667" y="58">remunerations</tspan></text></g><rect x="0" y="0" width="100" height="80" stroke="#FFFFFF" stroke-width="15" stroke-opacity="0" fill="none"/><rect x="-5" y="-5" rx="14" width="110" height="90" fill="none"/></g></g><g><g><g><defs><marker refX="11" refY="10" markerWidth="10" markerHeight="10" markerUnits="strokeWidth" orient="auto" viewBox="0 0 20 20" id="marker-5o0byyl8xt6ymlwv0lpa2ot1k" overflow="hidden"><path d="M1 5 11 10 1 15Z" stroke="#22242A" stroke-linecap="round" stroke-linejoin="round" fill="#22242A"/></marker></defs><path d="M660 450 700 450" stroke="#22242A" stroke-width="2" stroke-linecap="round" stroke-linejoin="round" fill="none" marker-end="url(#marker-5o0byyl8xt6ymlwv0lpa2ot1k)"/></g><path d="M660 450 700 450" stroke="#FFFFFF" stroke-width="15" stroke-opacity="0" fill="none"/><rect x="655" y="445" rx="4" width="50" height="10" fill="none"/></g></g></g></g><g><g transform="translate(160 530)"><g><rect x="0" y="0" rx="0" ry="0" width="740" height="120" stroke="#22242A" stroke-width="1.5" stroke-linecap="round" stroke-linejoin="round" fill="#FFFFFF" fill-opacity="0.95"/><path d="M30 0 30 120" stroke="#22242A" stroke-width="1.5" stroke-linecap="round" stroke-linejoin="round" fill="none"/><text fill="#22242A" font-family="Arial,Arial" font-weight="400" font-size="12" transform="matrix(-1.83697e-16 -1 1 -1.83697e-16 0 120)"><tspan x="19.1667" y="18.6">CESU operator</tspan></text></g><rect x="0" y="0" width="740" height="120" stroke="#FFFFFF" stroke-width="15" stroke-opacity="0" fill="none"/><rect x="0" y="0" width="740" height="120" stroke="#FFFFFF" stroke-width="15" stroke-opacity="0" fill="none"/><rect x="0" y="0" width="30" height="120" stroke="#FFFFFF" stroke-width="15" stroke-opacity="0" fill="none"/><rect x="-5" y="-5" rx="4" width="750" height="130" fill="none"/></g><g><g><g transform="translate(700 550)"><g><rect x="0" y="0" rx="10" ry="10" width="100" height="80" stroke="#6B3C00" stroke-width="2" stroke-linecap="round" stroke-linejoin="round" fill="#FFE0B2" fill-opacity="0.95"/><text fill="#6B3C00" font-family="Arial,Arial" font-weight="400" font-size="12"><tspan x="10" y="22">10a.4 Receive </tspan><tspan x="12.3333" y="36.4">CESU results </tspan><tspan x="38.3333" y="50.8">and </tspan><tspan x="11.6667" y="65.2">remunerations</tspan></text></g><rect x="0" y="0" width="100" height="80" stroke="#FFFFFF" stroke-width="15" stroke-opacity="0" fill="none"/><rect x="-5" y="-5" rx="14" width="110" height="90" fill="none"/></g></g><g><g transform="translate(842 572)"><g><circle cx="18" cy="18" r="18" stroke="#22242A" stroke-width="4" stroke-linecap="round" stroke-linejoin="round" fill="#FFFFFF" fill-opacity="0.95"/></g><rect x="0" y="0" width="36" height="36" stroke="#FFFFFF" stroke-width="15" stroke-opacity="0" fill="none"/><circle cx="18" cy="18" r="24" fill="none"/></g></g><g><g><g><defs><marker refX="11" refY="10" markerWidth="10" markerHeight="10" markerUnits="strokeWidth" orient="auto" viewBox="0 0 20 20" id="marker-1m46gecodptu726ldtgztkw6z" overflow="hidden"><path d="M1 5 11 10 1 15Z" stroke="#22242A" stroke-linecap="round" stroke-linejoin="round" fill="#22242A"/></marker></defs><path d="M800 590 842 590" stroke="#22242A" stroke-width="2" stroke-linecap="round" stroke-linejoin="round" fill="none" marker-end="url(#marker-1m46gecodptu726ldtgztkw6z)"/></g><path d="M800 590 842 590" stroke="#FFFFFF" stroke-width="15" stroke-opacity="0" fill="none"/><rect x="795" y="585" rx="4" width="52" height="10" fill="none"/></g></g></g></g><g><g><g><defs><marker refX="8.5" refY="5" markerWidth="20" markerHeight="20" markerUnits="strokeWidth" orient="auto" viewBox="0 0 20 20" id="marker-5nzfopwxpiufp0hgimnscpb9r" overflow="hidden"><path d="M1 5 1 2 8 5 1 8Z" stroke="#22242A" stroke-linecap="round" stroke-linejoin="round" stroke-dasharray="10000 1" fill="#FFFFFF"/></marker><marker refX="6" refY="6" markerWidth="20" markerHeight="20" markerUnits="strokeWidth" orient="auto" viewBox="0 0 20 20" id="marker-5a2vu6m3qb86ttjpyiq8j4r67" overflow="hidden"><circle cx="6" cy="6" r="3.5" stroke="#22242A" stroke-linecap="round" stroke-linejoin="round" stroke-dasharray="10000 1" fill="#FFFFFF"/></marker></defs><path d="M750 490 750 550" stroke="#22242A" stroke-width="1.5" stroke-linecap="round" stroke-linejoin="round" stroke-dasharray="10 11" fill="none" marker-start="url(#marker-5a2vu6m3qb86ttjpyiq8j4r67)" marker-end="url(#marker-5nzfopwxpiufp0hgimnscpb9r)"/></g><path d="M750 490 750 550" stroke="#FFFFFF" stroke-width="15" stroke-opacity="0" fill="none"/><rect x="745" y="485" rx="4" width="10" height="70" fill="none"/></g></g><g><g><g><defs><marker refX="8.5" refY="5" markerWidth="20" markerHeight="20" markerUnits="strokeWidth" orient="auto" viewBox="0 0 20 20" id="marker-99hnrryiig490euif0g7ze1fj" overflow="hidden"><path d="M1 5 1 2 8 5 1 8Z" stroke="#22242A" stroke-linecap="round" stroke-linejoin="round" stroke-dasharray="10000 1" fill="#FFFFFF"/></marker><marker refX="6" refY="6" markerWidth="20" markerHeight="20" markerUnits="strokeWidth" orient="auto" viewBox="0 0 20 20" id="marker-50uodnrqb2345nelbi2y53rqx" overflow="hidden"><circle cx="6" cy="6" r="3.5" stroke="#22242A" stroke-linecap="round" stroke-linejoin="round" stroke-dasharray="10000 1" fill="#FFFFFF"/></marker></defs><path d="M330 210 330 270" stroke="#22242A" stroke-width="1.5" stroke-linecap="round" stroke-linejoin="round" stroke-dasharray="10 11" fill="none" marker-start="url(#marker-50uodnrqb2345nelbi2y53rqx)" marker-end="url(#marker-99hnrryiig490euif0g7ze1fj)"/></g><path d="M330 210 330 270" stroke="#FFFFFF" stroke-width="15" stroke-opacity="0" fill="none"/><rect x="325" y="205" rx="4" width="10" height="70" fill="none"/></g></g><g><g><g><defs><marker refX="8.5" refY="5" markerWidth="20" markerHeight="20" markerUnits="strokeWidth" orient="auto" viewBox="0 0 20 20" id="marker-eqpdhbs7ufxhztrtzi1c3s4vh" overflow="hidden"><path d="M1 5 1 2 8 5 1 8Z" stroke="#22242A" stroke-linecap="round" stroke-linejoin="round" stroke-dasharray="10000 1" fill="#FFFFFF"/></marker><marker refX="6" refY="6" markerWidth="20" markerHeight="20" markerUnits="strokeWidth" orient="auto" viewBox="0 0 20 20" id="marker-9oldgofq9tbq9bjzs0g6o8is7" overflow="hidden"><circle cx="6" cy="6" r="3.5" stroke="#22242A" stroke-linecap="round" stroke-linejoin="round" stroke-dasharray="10000 1" fill="#FFFFFF"/></marker></defs><path d="M610 350 610 410" stroke="#22242A" stroke-width="1.5" stroke-linecap="round" stroke-linejoin="round" stroke-dasharray="10 11" fill="none" marker-start="url(#marker-9oldgofq9tbq9bjzs0g6o8is7)" marker-end="url(#marker-eqpdhbs7ufxhztrtzi1c3s4vh)"/></g><path d="M610 350 610 410" stroke="#FFFFFF" stroke-width="15" stroke-opacity="0" fill="none"/><rect x="605" y="345" rx="4" width="10" height="70" fill="none"/></g></g></svg>