<?xml version="1.0" encoding="UTF-8"?><svg id="Layer_1" xmlns="http://www.w3.org/2000/svg" viewBox="0 0 1865.5263 893.5908"><path d="M1.0121,101.1129l-.6767.072c-.2448,3.1242-.3599,6.2773-.3311,9.4735.3599,58.9718,47.1083,106.6704,105.4178,109.046,1.195.0432,2.4332.0576,3.7001.0576,9.5599,0,21.1066-1.0798,33.2868-4.6936L1.0121,101.1129Z" fill="#6c6fa9"/><path d="M785.9097,43.9524c-5.4566,7.1699-10.0637,15.0309-13.6487,23.439-17.9824,4.8951-52.0035,9.1712-94.8357,12.7561l-236.3622,59.6196.4031.1728c34.4818-.8063,70.245-1.2958,105.1586-1.2958,96.4338,0,186.4032,3.7001,225.3626,14.3974,16.6435,39.6505,55.7899,67.4662,101.3865,67.4662h.6911c3.1387-.0288,6.2341-.1728,9.3007-.4463l-97.456-176.1091Z" fill="#40b8b2"/><path d="M805.9638,23.6851c-7.5299,5.8598-14.2678,12.6841-20.0556,20.2716l97.456,176.0946c51.1396-4.5928,92.1146-44.1712,98.9822-94.5046l-176.3826-101.8616Z" fill="#dedb2e"/><path d="M677.431,80.146c-96.4338,8.0626-237.6436,12.5977-341.5208,12.6697l105.1587,46.9499,236.3622-59.6196Z" fill="#dedb2e"/><path d="M109.9515,0h-.6767C70.3443.2447,36.2512,20.7035,16.9011,51.3555l199.8216,32.5526c-2.6203-10.7837-6.8532-20.9338-12.3962-30.2057-14.9733-28.7516-44.8911-41.8677-44.8911-41.8677C144.5485,4.3192,127.7611,0,109.9515,0M.3873,100.609c-.0144.1872-.0288.3887-.0432.5759l.6623-.072-.6191-.5039Z" fill="#40b8b2"/><path d="M873.4012.5658h-.691c-25.1811.1584-48.3177,8.768-66.7464,23.1222l176.3826,101.8473c.691-5.1255,1.0366-10.3518,1.0078-15.6788-.3743-60.4979-49.5415-109.2907-109.953-109.2907" fill="#6c6fa9"/><path d="M16.8997,51.3627C7.7573,65.8465,1.8976,82.6195.3859,100.6162l.6335.5039,141.3969,113.941c13.6199-4.0313,28.0173-11.2587,41.3205-23.7125,11.23-10.179,20.3291-22.6039,26.592-36.627,3.1386-.7631,6.2197-1.5117,9.2863-2.2604,17.1041-4.1464,113.1636-9.963,221.8496-12.5113l-.4031-.1872-105.1587-46.9355s-95.4692-1.0942-117.9723-3.3834c-.36-1.8573-.7631-3.7145-1.2094-5.543L16.8997,51.3627Z" fill="#f3975c"/><polygon points="103.8413 711.3038 82.7635 711.3038 82.7635 772.6224 75.9967 772.6224 75.9967 711.3038 54.9189 711.3038 54.9189 704.9258 103.8413 704.9258 103.8413 711.3038" fill="#1d8279"/><path d="M174.9961,738.8043c0-16.1971-11.9642-28.3341-28.3485-28.3341s-28.3485,12.2378-28.3485,28.3341c0,16.0675,11.9643,28.2765,28.3485,28.2765s28.3485-12.1082,28.3485-28.2765M111.3884,738.8043c0-19.9548,14.8149-34.9713,35.2592-34.9713s35.2592,14.9877,35.2592,34.9713c0,19.9548-14.8149,34.9137-35.2592,34.9137s-35.2592-14.9877-35.2592-34.9137" fill="#1d8279"/><path d="M263.3588,739.6192c-.5039,20.0124-14.311,34.0499-33.6467,34.0499-19.8972,0-34.165-14.7429-34.165-34.8705,0-20.0844,14.4406-34.8417,34.0211-34.8417,16.1395,0,29.7306,10.1358,32.6965,24.3748h-6.9827c-2.8939-10.5245-13.2888-17.7376-25.5698-17.7376-15.8228,0-27.2543,11.7771-27.2543,28.2045,0,16.629,11.1436,28.2189,27.2543,28.2189,13.6775,0,24.1444-8.4225,26.3184-20.9626h-29.0252v-6.4356h36.3534Z" fill="#1d8279"/><polygon points="320.1666 766.1148 320.1666 772.6224 281.3944 772.6224 281.3944 704.9258 319.1012 704.9258 319.1012 711.3758 288.1756 711.3758 288.1756 734.4837 316.596 734.4837 316.596 740.7897 288.1756 740.7897 288.1756 766.1148 320.1666 766.1148" fill="#1d8279"/><polygon points="379.7143 711.3038 358.6365 711.3038 358.6365 772.6224 351.8697 772.6224 351.8697 711.3038 330.7919 711.3038 330.7919 704.9258 379.7143 704.9258 379.7143 711.3038" fill="#1d8279"/><polygon points="446.5384 704.933 446.5384 772.6296 439.7572 772.6296 439.7572 740.8977 402.0792 740.8977 402.0792 772.6296 395.298 772.6296 395.298 704.933 402.0792 704.933 402.0792 734.3901 439.7572 734.3901 439.7572 704.933 446.5384 704.933" fill="#1d8279"/><polygon points="508.4357 766.1148 508.4357 772.6224 469.6635 772.6224 469.6635 704.9258 507.3703 704.9258 507.3703 711.3758 476.4447 711.3758 476.4447 734.4837 504.8652 734.4837 504.8652 740.7897 476.4447 740.7897 476.4447 766.1148 508.4357 766.1148" fill="#1d8279"/><path d="M533.3907,738.7712h18.2127c8.9264,0,14.9877-5.7302,14.9877-13.6919,0-7.9186-6.0901-13.7063-14.9877-13.7063h-18.2127v27.3983ZM550.5236,745.2068h-17.1329v27.4127h-6.7812v-67.6822h25.325c12.4249,0,21.5817,8.4369,21.5817,20.214,0,9.7182-6.4212,17.2193-15.794,19.4077l16.629,28.0605h-7.645l-16.1827-27.4127Z" fill="#1d8279"/><polygon points="660.4262 711.3038 639.3484 711.3038 639.3484 772.6224 632.5816 772.6224 632.5816 711.3038 611.5038 711.3038 611.5038 704.9258 660.4262 704.9258 660.4262 711.3038" fill="#1d8279"/><path d="M731.5825,738.8043c0-16.1971-11.9643-28.3341-28.3485-28.3341s-28.3485,12.2378-28.3485,28.3341c0,16.0675,11.9643,28.2765,28.3485,28.2765s28.3485-12.1082,28.3485-28.2765M667.9748,738.8043c0-19.9548,14.8149-34.9713,35.2593-34.9713s35.2592,14.9877,35.2592,34.9713c0,19.9548-14.8149,34.9137-35.2592,34.9137s-35.2593-14.9877-35.2593-34.9137" fill="#1d8279"/><polygon points="842.5261 704.933 821.074 772.6296 815.1566 772.6296 795.5761 721.1589 776.3988 772.6296 770.4815 772.6296 748.5542 704.933 755.7673 704.933 773.6777 761.3852 794.0789 706.6463 796.9439 706.6463 817.8634 761.4284 835.3849 704.933 842.5261 704.933" fill="#1d8279"/><path d="M864.3222,749.087h28.91l-14.599-34.7697-14.3111,34.7697ZM895.8238,755.321h-34.0642l-7.1699,17.3057h-7.2131l28.0173-67.6966h6.2628l28.7948,67.6966h-7.3427l-7.285-17.3057Z" fill="#1d8279"/><path d="M932.6523,738.7712h18.2127c8.9264,0,14.9877-5.7302,14.9877-13.6919,0-7.9186-6.0901-13.7063-14.9877-13.7063h-18.2127v27.3983ZM949.7853,745.2068h-17.1329v27.4127h-6.7812v-67.6822h25.3251c12.4249,0,21.5817,8.4369,21.5817,20.214,0,9.7182-6.4212,17.2193-15.794,19.4077l16.629,28.0605h-7.645l-16.1827-27.4127Z" fill="#1d8279"/><path d="M1040.8718,738.7467c0-15.8803-11.4891-27.4415-27.6142-27.4415h-14.7573v54.9405h14.7573c16.0964,0,27.6142-11.5899,27.6142-27.499M1047.7826,738.7467c0,19.6237-14.4406,33.8771-34.3378,33.8771h-21.7256v-67.6966h21.7256c19.926,0,34.3378,14.2246,34.3378,33.8195" fill="#1d8279"/><path d="M1061.2096,752.0715h6.9108c0,9.1424,7.285,14.7573,17.6224,14.7573,9.3582,0,16.4562-5.1255,16.4562-13.044,0-8.8256-8.4945-10.7405-17.7089-12.8569-10.4813-2.4332-21.9272-5.1255-21.9272-18.3279,0-11.4171,8.8832-18.5151,22.6183-18.5151,13.6343,0,22.1288,7.6882,22.1288,19.6669h-6.7092c0-8.1921-6.4932-13.1592-15.5492-13.1592-9.1712,0-15.7219,4.5208-15.7219,11.7483,0,8.3361,8.3648,10.251,17.4496,12.3386,10.6684,2.534,22.4024,5.2839,22.4024,19.0334,0,12.3818-10.0494,19.7532-23.3814,19.7532-14.6998,0-24.5908-8.3361-24.5908-21.3945" fill="#1d8279"/><polygon points="1195.2538 711.3038 1174.1761 711.3038 1174.1761 772.6224 1167.4093 772.6224 1167.4093 711.3038 1146.3314 711.3038 1146.3314 704.9258 1195.2538 704.9258 1195.2538 711.3038" fill="#1d8279"/><polygon points="1262.0823 704.933 1262.0823 772.6296 1255.3011 772.6296 1255.3011 740.8977 1217.6231 740.8977 1217.6231 772.6296 1210.8419 772.6296 1210.8419 704.933 1217.6231 704.933 1217.6231 734.3901 1255.3011 734.3901 1255.3011 704.933 1262.0823 704.933" fill="#1d8279"/><polygon points="1323.9752 766.1148 1323.9752 772.6224 1285.203 772.6224 1285.203 704.9258 1322.9098 704.9258 1322.9098 711.3758 1291.9842 711.3758 1291.9842 734.4837 1320.4046 734.4837 1320.4046 740.7897 1291.9842 740.7897 1291.9842 766.1148 1323.9752 766.1148" fill="#1d8279"/><path d="M1367.1847,738.8043c0-20.2859,14.5126-34.9137,34.6257-34.9137,15.4196,0,27.6719,8.9552,31.8039,23.1222h-6.954c-3.8873-10.3085-13.0872-16.4706-24.8499-16.4706-16.0962,0-27.7149,11.7483-27.7149,28.2621s11.6043,28.2045,27.7149,28.2045c12.0795,0,21.4377-6.5508,25.2675-17.5216h6.9107c-4.0888,14.9013-16.4418,24.1733-32.1782,24.1733-20.142,0-34.6257-14.5702-34.6257-34.8561" fill="#1d8279"/><path d="M1509.7925,738.8043c0-16.1971-11.9643-28.3341-28.3485-28.3341s-28.3484,12.2378-28.3484,28.3341c0,16.0675,11.9642,28.2765,28.3484,28.2765s28.3485-12.1082,28.3485-28.2765M1446.1848,738.8043c0-19.9548,14.8149-34.9713,35.2592-34.9713s35.2593,14.9877,35.2593,34.9713c0,19.9548-14.8149,34.9137-35.2593,34.9137s-35.2592-14.9877-35.2592-34.9137" fill="#1d8279"/><polygon points="1605.672 772.6224 1596.2273 716.9476 1572.0541 770.4628 1570.1392 770.4628 1545.9804 717.0052 1536.4493 772.6224 1529.5385 772.6224 1541.114 704.9258 1547.5784 704.9258 1571.0175 757.5195 1594.586 704.9258 1601.1801 704.9258 1612.5828 772.6224 1605.672 772.6224" fill="#1d8279"/><polygon points="1701.5933 772.6224 1692.1485 716.9476 1667.9753 770.4628 1666.0604 770.4628 1641.9017 717.0052 1632.3706 772.6224 1625.4598 772.6224 1637.0353 704.9258 1643.4997 704.9258 1666.9387 757.5195 1690.4929 704.9258 1697.1013 704.9258 1708.504 772.6224 1701.5933 772.6224" fill="#1d8279"/><path d="M1784.9946,738.8043c0-16.1971-11.9642-28.3341-28.3484-28.3341s-28.3486,12.2378-28.3486,28.3341c0,16.0675,11.9644,28.2765,28.3486,28.2765s28.3484-12.1082,28.3484-28.2765M1721.3868,738.8043c0-19.9548,14.815-34.9713,35.2593-34.9713s35.2591,14.9877,35.2591,34.9713c0,19.9548-14.8148,34.9137-35.2591,34.9137s-35.2593-14.9877-35.2593-34.9137" fill="#1d8279"/><polygon points="1856.7151 704.9344 1856.7151 760.2637 1816.388 704.9344 1810.2546 704.9344 1810.2546 772.631 1816.8918 772.631 1816.8918 716.8267 1857.6222 772.631 1863.3668 772.631 1863.3668 704.9344 1856.7151 704.9344" fill="#1d8279"/><polygon points="62.4675 824.8058 62.4675 892.5024 101.2541 892.5024 101.2541 885.9947 69.2487 885.9947 69.2487 860.6697 97.6691 860.6697 97.6691 854.3636 69.2487 854.3636 69.2487 831.2414 100.1887 831.2414 100.1887 824.8058 62.4675 824.8058" fill="#1d8279"/><path d="M118.5914,867.3703v-42.5587h6.8532v42.0836c0,11.8491,8.0338,19.998,19.3501,19.998,11.2588,0,19.2925-8.1489,19.2925-19.998v-42.0836h6.8532v42.5587c0,15.3044-11.1292,26.1745-26.1457,26.1745-15.0741,0-26.2033-10.87-26.2033-26.1745" fill="#1d8279"/><path d="M199.9799,858.644h18.2127c8.9264,0,14.9877-5.7302,14.9877-13.6919,0-7.9186-6.0901-13.7063-14.9877-13.7063h-18.2127v27.3983ZM217.1129,865.0796h-17.1329v27.4127h-6.7812v-67.6822h25.325c12.425,0,21.5817,8.4369,21.5817,20.214,0,9.7182-6.4212,17.2193-15.794,19.4077l16.629,28.0605h-7.645l-16.1827-27.4127Z" fill="#1d8279"/><path d="M317.9134,858.6771c0-16.1971-11.9643-28.3341-28.3485-28.3341s-28.3485,12.2378-28.3485,28.3341c0,16.0675,11.9643,28.2765,28.3485,28.2765s28.3485-12.1082,28.3485-28.2765M254.3057,858.6771c0-19.9548,14.8149-34.9713,35.2592-34.9713s35.2592,14.9877,35.2592,34.9713c0,19.9548-14.8149,34.9137-35.2592,34.9137s-35.2592-14.9877-35.2592-34.9137" fill="#1d8279"/><path d="M382.1417,846.0506c0-8.4081-6.522-14.671-15.506-14.671h-16.6722v29.3707h16.6722c8.984,0,15.506-6.2773,15.506-14.6998M389.0525,846.0506c0,12.1514-9.4447,21.2794-22.0712,21.2794h-17.0177v25.1667h-6.7812v-67.6966h23.7989c12.5402,0,22.0712,9.056,22.0712,21.2506" fill="#1d8279"/><polygon points="405.6512 824.8058 405.6512 892.5024 444.4234 892.5024 444.4234 885.9947 412.4324 885.9947 412.4324 860.6697 440.8384 860.6697 440.8384 854.3636 412.4324 854.3636 412.4324 831.2414 443.358 831.2414 443.358 824.8058 405.6512 824.8058" fill="#1d8279"/><path d="M486.1298,834.1929l14.599,34.7553h-28.91l14.311-34.7553ZM482.9048,824.8058l-28.0317,67.6966h7.2275l7.1555-17.3057h34.0643l7.2851,17.3057h7.3427l-28.7804-67.6966h-6.2629Z" fill="#1d8279"/><polygon points="579.8411 824.8058 579.8411 880.135 539.514 824.8058 533.3806 824.8058 533.3806 892.5024 540.0179 892.5024 540.0179 836.698 580.7481 892.5024 586.4783 892.5024 586.4783 824.8058 579.8411 824.8058" fill="#1d8279"/><polygon points="639.3556 824.8058 639.3556 892.5024 678.1423 892.5024 678.1423 885.9947 646.1368 885.9947 646.1368 860.6697 674.5573 860.6697 674.5573 854.3636 646.1368 854.3636 646.1368 831.2414 677.0768 831.2414 677.0768 824.8058 639.3556 824.8058" fill="#1d8279"/><polygon points="742.7707 824.8058 742.7707 880.135 702.4436 824.8058 696.3103 824.8058 696.3103 892.5024 702.9475 892.5024 702.9475 836.698 743.6778 892.5024 749.4224 892.5024 749.4224 824.8058 742.7707 824.8058" fill="#1d8279"/><polygon points="772.5086 824.8058 772.5086 892.5024 811.2808 892.5024 811.2808 885.9947 779.2898 885.9947 779.2898 860.6697 807.6958 860.6697 807.6958 854.3636 779.2898 854.3636 779.2898 831.2414 810.2154 831.2414 810.2154 824.8058 772.5086 824.8058" fill="#1d8279"/><path d="M836.2387,858.644h18.2127c8.9264,0,14.9877-5.7302,14.9877-13.6919,0-7.9186-6.0901-13.7063-14.9877-13.7063h-18.2127v27.3983ZM853.3716,865.0796h-17.1329v27.4127h-6.7812v-67.6822h25.3251c12.4249,0,21.5817,8.4369,21.5817,20.214,0,9.7182-6.4212,17.2193-15.794,19.4077l16.629,28.0605h-7.645l-16.1827-27.4127Z" fill="#1d8279"/><path d="M958.4079,859.4934c-.504,20.0124-14.3111,34.0499-33.6467,34.0499-19.8973,0-34.1651-14.7429-34.1651-34.8705,0-20.0844,14.4406-34.8417,34.0211-34.8417,16.1395,0,29.7307,10.1358,32.6966,24.3748h-6.9827c-2.8939-10.5245-13.2889-17.7376-25.5698-17.7376-15.8227,0-27.2544,11.7771-27.2544,28.2045,0,16.629,11.1436,28.2189,27.2544,28.2189,13.6775,0,24.1444-8.4225,26.3184-20.9626h-29.0252v-6.4356h36.3535Z" fill="#1d8279"/><polygon points="1015.8535 824.8058 994.5165 859.1868 973.2948 824.8058 965.8513 824.8058 990.9748 865.608 990.9748 892.5024 997.9575 892.5024 997.9575 865.5936 1023.3113 824.8058 1015.8535 824.8058" fill="#1d8279"/><path d="M1115.8074,858.6195c0-15.8803-11.4891-27.4415-27.6286-27.4415h-14.7429v54.9405h14.7429c16.1107,0,27.6286-11.5899,27.6286-27.499M1122.7182,858.6195c0,19.6237-14.4406,33.8771-34.3235,33.8771h-21.74v-67.6966h21.74c19.9117,0,34.3235,14.2246,34.3235,33.8195" fill="#1d8279"/><path d="M1162.2348,834.1929l14.599,34.7553h-28.9099l14.311-34.7553ZM1159.0098,824.8058l-28.0317,67.6966h7.2275l7.1555-17.3057h34.0642l7.2851,17.3057h7.3426l-28.7948-67.6966h-6.2484Z" fill="#1d8279"/><polygon points="1195.6411 824.8058 1195.6411 831.1838 1216.7045 831.1838 1216.7045 892.5024 1223.5001 892.5024 1223.5001 831.1838 1244.5635 831.1838 1244.5635 824.8058 1195.6411 824.8058" fill="#1d8279"/><path d="M1277.4025,834.1929l14.599,34.7553h-28.9099l14.311-34.7553ZM1274.1775,824.8058l-28.0317,67.6966h7.2275l7.1555-17.3057h34.0642l7.2851,17.3057h7.3426l-28.7948-67.6966h-6.2484Z" fill="#1d8279"/><path d="M1346.4596,871.9443h6.9108c0,9.1424,7.285,14.7573,17.6224,14.7573,9.3583,0,16.4562-5.1255,16.4562-13.044,0-8.8112-8.4944-10.7405-17.7089-12.8569-10.4813-2.4332-21.9272-5.1255-21.9272-18.3279,0-11.4171,8.8832-18.5151,22.6183-18.5151,13.6343,0,22.1288,7.6882,22.1288,19.6669h-6.7092c0-8.1777-6.4932-13.1592-15.5492-13.1592-9.1712,0-15.7219,4.5208-15.7219,11.7483,0,8.3361,8.3648,10.251,17.4496,12.3386,10.6684,2.5339,22.4024,5.2838,22.4024,19.0334,0,12.3818-10.0494,19.7532-23.3814,19.7532-14.6998,0-24.5908-8.3361-24.5908-21.3945" fill="#1d8279"/><path d="M1451.5089,846.0506c0-8.4081-6.522-14.671-15.5059-14.671h-16.6722v29.3707h16.6722c8.984,0,15.5059-6.2773,15.5059-14.6998M1458.4197,846.0506c0,12.1514-9.4447,21.2794-22.0712,21.2794h-17.0177v25.1667h-6.7812v-67.6966h23.7989c12.5401,0,22.0712,9.056,22.0712,21.2506" fill="#1d8279"/><path d="M1493.8991,834.1929l14.599,34.7553h-28.8955l14.2966-34.7553ZM1490.6741,824.8058l-28.0317,67.6966h7.2275l7.1699-17.3057h34.0498l7.2851,17.3057h7.357l-28.7948-67.6966h-6.2628Z" fill="#1d8279"/><path d="M1534.1773,858.6771c0-20.2859,14.5126-34.9137,34.6257-34.9137,15.4196,0,27.6863,8.9552,31.8039,23.1222h-6.954c-3.8873-10.3085-13.0872-16.4706-24.8499-16.4706-16.0962,0-27.7149,11.7483-27.7149,28.2621s11.6043,28.2045,27.7149,28.2045c12.0795,0,21.4377-6.5508,25.2675-17.5216h6.9107c-4.0888,14.9013-16.4418,24.1732-32.1782,24.1732-20.142,0-34.6257-14.5702-34.6257-34.8561" fill="#1d8279"/><polygon points="1617.9314 824.8058 1617.9314 892.5024 1656.7036 892.5024 1656.7036 885.9947 1624.7126 885.9947 1624.7126 860.6697 1653.1187 860.6697 1653.1187 854.3636 1624.7126 854.3636 1624.7126 831.2414 1655.6383 831.2414 1655.6383 824.8058 1617.9314 824.8058" fill="#1d8279"/><rect x="52.863" y="316.1469" width="101.0554" height="297.22" fill="#1d8279"/><polygon points="488.933 316.1426 488.933 613.3626 408.2499 613.3626 303.3792 472.8872 303.3792 613.3626 209.1194 613.3626 209.1194 316.1426 292.7683 316.1426 394.6731 450.6288 394.6731 316.1426 488.933 316.1426" fill="#1d8279"/><path d="M531.4025,519.1042h104.0212c0,13.1592,8.077,20.8042,20.3867,20.8042,11.0428,0,19.1054-5.9461,19.1054-16.557,0-15.7076-19.9548-20.3723-44.5744-26.7504-40.7735-10.1934-95.1237-23.3526-95.1237-94.6917,0-59.0149,43.7393-94.2598,118.4619-94.2598,73.47,0,116.7773,36.0943,116.7773,96.8081h-100.2059c0-11.4603-5.9462-17.824-16.5714-17.824-10.179,0-16.1251,5.0823-16.1251,13.5912,0,14.4262,19.9548,19.5229,45.0063,26.3184,42.0404,11.0428,98.507,25.9009,98.507,94.2598,0,63.6941-46.7051,101.0554-125.2574,101.0554-78.1203,0-124.408-38.2107-124.408-102.7543" fill="#1d8279"/><rect x="822.6922" y="316.1469" width="101.0553" height="297.22" fill="#1d8279"/><polygon points="1184.4515 533.5405 1184.4515 613.3741 978.9429 613.3741 978.9429 316.1398 1182.3206 316.1398 1182.3206 395.9733 1076.6006 395.9733 1076.6006 428.2379 1171.2922 428.2379 1171.2922 501.276 1076.6006 501.276 1076.6006 533.5405 1184.4515 533.5405" fill="#1d8279"/><polygon points="1522.013 613.3684 1504.5778 463.3042 1435.3982 613.3684 1401.4204 613.3684 1332.3417 463.5202 1315.655 613.3684 1216.2985 613.3684 1260.0379 316.1484 1357.6954 316.1484 1418.3517 459.0714 1479.5551 316.1484 1577.2127 316.1484 1620.5201 613.3684 1522.013 613.3684" fill="#1d8279"/><polygon points="1660.0178 316.1397 1660.0178 613.3597 1865.5263 613.3597 1865.5263 533.5405 1757.6754 533.5405 1757.6754 501.2615 1852.3671 501.2615 1852.3671 428.2379 1757.6754 428.2379 1757.6754 395.9733 1863.3956 395.9733 1863.3956 316.1397 1660.0178 316.1397" fill="#1d8279"/></svg>