<?xml version="1.0" encoding="us-ascii" standalone="no"?><svg xmlns="http://www.w3.org/2000/svg" xmlns:xlink="http://www.w3.org/1999/xlink" contentStyleType="text/css" height="634px" preserveAspectRatio="none" style="width:1774px;height:634px;background:#FFFFFF;" version="1.1" viewBox="0 0 1774 634" width="1774px" zoomAndPan="magnify"><defs/><g><text fill="#000000" font-family="sans-serif" font-size="14" font-weight="bold" lengthAdjust="spacing" textLength="427.3125" x="666.3438" y="24.5332">EDSM Data Traceability (Offer &#8594; Contract &#8594; Usage &#8594; Invoice)</text><!--entity Offer--><g id="elem_Offer"><rect fill="#F1F1F1" height="37.6094" rx="2.5" ry="2.5" style="stroke:#181818;stroke-width:0.5;" width="52" x="152" y="532.6094"/><text fill="#000000" font-family="sans-serif" font-size="14" lengthAdjust="spacing" textLength="32" x="162" y="557.1426">Offer</text></g><!--entity Catalog--><g id="elem_Catalog"><rect fill="#F1F1F1" height="37.6094" rx="2.5" ry="2.5" style="stroke:#181818;stroke-width:0.5;" width="106" x="297" y="590.6094"/><text fill="#000000" font-family="sans-serif" font-size="14" lengthAdjust="spacing" textLength="86" x="307" y="615.1426">Catalog Entry</text></g><!--entity Request--><g id="elem_Request"><rect fill="#F1F1F1" height="37.6094" rx="2.5" ry="2.5" style="stroke:#181818;stroke-width:0.5;" width="122" x="463" y="473.6094"/><text fill="#000000" font-family="sans-serif" font-size="14" lengthAdjust="spacing" textLength="102" x="473" y="498.1426">Access Request</text></g><!--entity Contract--><g id="elem_Contract"><rect fill="#F1F1F1" height="37.6094" rx="2.5" ry="2.5" style="stroke:#181818;stroke-width:0.5;" width="147" x="645" y="260.6094"/><text fill="#000000" font-family="sans-serif" font-size="14" lengthAdjust="spacing" textLength="127" x="655" y="285.1426">Contract Agreement</text></g><!--entity Policy--><g id="elem_Policy"><rect fill="#F1F1F1" height="37.6094" rx="2.5" ry="2.5" style="stroke:#181818;stroke-width:0.5;" width="57" x="873.5" y="332.6094"/><text fill="#000000" font-family="sans-serif" font-size="14" lengthAdjust="spacing" textLength="37" x="883.5" y="357.1426">Policy</text></g><!--entity UsageEvent--><g id="elem_UsageEvent"><rect fill="#F1F1F1" height="37.6094" rx="2.5" ry="2.5" style="stroke:#181818;stroke-width:0.5;" width="100" x="852" y="97.6094"/><text fill="#000000" font-family="sans-serif" font-size="14" lengthAdjust="spacing" textLength="80" x="862" y="122.1426">Usage Event</text></g><!--entity UsageRecord--><g id="elem_UsageRecord"><rect fill="#F1F1F1" height="37.6094" rx="2.5" ry="2.5" style="stroke:#181818;stroke-width:0.5;" width="110" x="1015.5" y="179.6094"/><text fill="#000000" font-family="sans-serif" font-size="14" lengthAdjust="spacing" textLength="90" x="1025.5" y="204.1426">Usage Record</text></g><!--entity Transaction--><g id="elem_Transaction"><rect fill="#F1F1F1" height="37.6094" rx="2.5" ry="2.5" style="stroke:#181818;stroke-width:0.5;" width="145" x="1189" y="179.6094"/><text fill="#000000" font-family="sans-serif" font-size="14" lengthAdjust="spacing" textLength="125" x="1199" y="204.1426">Transaction Record</text></g><!--entity Invoice--><g id="elem_Invoice"><rect fill="#F1F1F1" height="37.6094" rx="2.5" ry="2.5" style="stroke:#181818;stroke-width:0.5;" width="64" x="1450.5" y="179.6094"/><text fill="#000000" font-family="sans-serif" font-size="14" lengthAdjust="spacing" textLength="44" x="1460.5" y="204.1426">Invoice</text></g><!--entity Settlement--><g id="elem_Settlement"><rect fill="#F1F1F1" height="37.6094" rx="2.5" ry="2.5" style="stroke:#181818;stroke-width:0.5;" width="137" x="1631" y="113.6094"/><text fill="#000000" font-family="sans-serif" font-size="14" lengthAdjust="spacing" textLength="117" x="1641" y="138.1426">Settlement Record</text></g><!--entity Pricing--><g id="elem_Pricing"><rect fill="#F1F1F1" height="37.6094" rx="2.5" ry="2.5" style="stroke:#181818;stroke-width:0.5;" width="105" x="297.5" y="404.6094"/><text fill="#000000" font-family="sans-serif" font-size="14" lengthAdjust="spacing" textLength="85" x="307.5" y="429.1426">Pricing Model</text></g><!--entity Audit--><g id="elem_Audit"><rect fill="#F1F1F1" height="37.6094" rx="2.5" ry="2.5" style="stroke:#181818;stroke-width:0.5;" width="80" x="1442.5" y="260.6094"/><text fill="#000000" font-family="sans-serif" font-size="14" lengthAdjust="spacing" textLength="60" x="1452.5" y="285.1426">Audit Log</text></g><!--entity Provider--><g id="elem_Provider"><ellipse cx="32.5" cy="521.1094" fill="#F1F1F1" rx="8" ry="8" style="stroke:#181818;stroke-width:0.5;"/><path d="M32.5,529.1094 L32.5,556.1094 M19.5,537.1094 L45.5,537.1094 M32.5,556.1094 L19.5,571.1094 M32.5,556.1094 L45.5,571.1094 " fill="none" style="stroke:#181818;stroke-width:0.5;"/><text fill="#000000" font-family="sans-serif" font-size="14" lengthAdjust="spacing" textLength="53" x="6" y="587.1426">Provider</text></g><!--entity Consumer--><g id="elem_Consumer"><ellipse cx="350" cy="486.1094" fill="#F1F1F1" rx="8" ry="8" style="stroke:#181818;stroke-width:0.5;"/><path d="M350,494.1094 L350,521.1094 M337,502.1094 L363,502.1094 M350,521.1094 L337,536.1094 M350,521.1094 L363,536.1094 " fill="none" style="stroke:#181818;stroke-width:0.5;"/><text fill="#000000" font-family="sans-serif" font-size="14" lengthAdjust="spacing" textLength="65" x="317.5" y="552.1426">Consumer</text></g><!--entity Marketplace--><g id="elem_Marketplace"><rect fill="#F1F1F1" height="55.2188" rx="2.5" ry="2.5" style="stroke:#181818;stroke-width:0.5;" width="118" x="119" y="360.1094"/><text fill="#000000" font-family="sans-serif" font-size="14" lengthAdjust="spacing" textLength="77" x="129" y="384.6426">Marketplace</text><text fill="#000000" font-family="sans-serif" font-size="14" lengthAdjust="spacing" textLength="98" x="129" y="402.252">(FC-02, FC-04)</text></g><!--entity Connector--><g id="elem_Connector"><rect fill="#F1F1F1" height="55.2188" rx="2.5" ry="2.5" style="stroke:#181818;stroke-width:0.5;" width="86" x="675.5" y="89.1094"/><text fill="#000000" font-family="sans-serif" font-size="14" lengthAdjust="spacing" textLength="66" x="685.5" y="113.6426">Connector</text><text fill="#000000" font-family="sans-serif" font-size="14" lengthAdjust="spacing" textLength="50" x="685.5" y="131.252">(FC-03)</text></g><!--entity Metering--><g id="elem_Metering"><rect fill="#F1F1F1" height="55.2188" rx="2.5" ry="2.5" style="stroke:#181818;stroke-width:0.5;" width="75" x="864.5" y="171.1094"/><text fill="#000000" font-family="sans-serif" font-size="14" lengthAdjust="spacing" textLength="55" x="874.5" y="195.6426">Metering</text><text fill="#000000" font-family="sans-serif" font-size="14" lengthAdjust="spacing" textLength="50" x="874.5" y="213.252">(FC-05)</text></g><!--entity Billing--><g id="elem_Billing"><rect fill="#F1F1F1" height="55.2188" rx="2.5" ry="2.5" style="stroke:#181818;stroke-width:0.5;" width="107" x="1208" y="63.1094"/><text fill="#000000" font-family="sans-serif" font-size="14" lengthAdjust="spacing" textLength="87" x="1218" y="87.6426">Billing System</text><text fill="#000000" font-family="sans-serif" font-size="14" lengthAdjust="spacing" textLength="50" x="1218" y="105.252">(FC-06)</text></g><!--entity Clearing--><g id="elem_Clearing"><rect fill="#F1F1F1" height="37.6094" rx="2.5" ry="2.5" style="stroke:#181818;stroke-width:0.5;" width="117" x="1012" y="45.6094"/><text fill="#000000" font-family="sans-serif" font-size="14" lengthAdjust="spacing" textLength="97" x="1022" y="70.1426">Clearing House</text></g><g id="elem_GMN45"><path d="M119,471.6094 L119,497.9609 L237,497.9609 L237,481.6094 L227,471.6094 L119,471.6094 " fill="#FEFFDD" style="stroke:#181818;stroke-width:0.5;"/><path d="M227,471.6094 L227,481.6094 L237,481.6094 L227,471.6094 " fill="#FEFFDD" style="stroke:#181818;stroke-width:1.0;"/><text fill="#000000" font-family="sans-serif" font-size="13" lengthAdjust="spacing" textLength="97" x="125" y="490.1045">Discovery Phase</text></g><g id="elem_GMN48"><path d="M654.5,199.6094 L654.5,225.9609 L782.5,225.9609 L782.5,209.6094 L772.5,199.6094 L654.5,199.6094 " fill="#FEFFDD" style="stroke:#181818;stroke-width:0.5;"/><path d="M772.5,199.6094 L772.5,209.6094 L782.5,209.6094 L772.5,199.6094 " fill="#FEFFDD" style="stroke:#181818;stroke-width:1.0;"/><text fill="#000000" font-family="sans-serif" font-size="13" lengthAdjust="spacing" textLength="107" x="660.5" y="218.1045">Contracting Phase</text></g><g id="elem_GMN51"><path d="M1021,118.6094 L1021,144.9609 L1120,144.9609 L1120,128.6094 L1110,118.6094 L1021,118.6094 " fill="#FEFFDD" style="stroke:#181818;stroke-width:0.5;"/><path d="M1110,118.6094 L1110,128.6094 L1120,128.6094 L1110,118.6094 " fill="#FEFFDD" style="stroke:#181818;stroke-width:1.0;"/><text fill="#000000" font-family="sans-serif" font-size="13" lengthAdjust="spacing" textLength="78" x="1027" y="137.1045">Usage Phase</text></g><g id="elem_GMN54"><path d="M1394,118.6094 L1394,144.9609 L1571,144.9609 L1571,128.6094 L1561,118.6094 L1394,118.6094 " fill="#FEFFDD" style="stroke:#181818;stroke-width:0.5;"/><path d="M1561,118.6094 L1561,128.6094 L1571,128.6094 L1561,118.6094 " fill="#FEFFDD" style="stroke:#181818;stroke-width:1.0;"/><text fill="#000000" font-family="sans-serif" font-size="13" lengthAdjust="spacing" textLength="156" x="1400" y="137.1045">Billing &amp; Settlement Phase</text></g><!--link Offer to Catalog--><g id="link_Offer_Catalog"><path d="M204.28,563.1094 C243.04,563.1094 311,563.1094 311,563.1094 C311,563.1094 311,571.6194 311,584.4294 " fill="none" id="Offer-to-Catalog" style="stroke:#181818;stroke-width:1.0;"/><polygon fill="#181818" points="311,590.4294,315,581.4294,311,585.4294,307,581.4294,311,590.4294" style="stroke:#181818;stroke-width:1.0;"/><text fill="#000000" font-family="sans-serif" font-size="13" lengthAdjust="spacing" textLength="55" x="215.3" y="577.6045">published</text></g><!--link Catalog to Request--><g id="link_Catalog_Request"><path d="M393,590.5694 C393,559.2394 393,500.2794 393,500.2794 C393,500.2794 422.62,500.2794 456.72,500.2794 " fill="none" id="Catalog-to-Request" style="stroke:#181818;stroke-width:1.0;"/><polygon fill="#181818" points="462.72,500.2794,453.72,496.2794,457.72,500.2794,453.72,504.2794,462.72,500.2794" style="stroke:#181818;stroke-width:1.0;"/><text fill="#000000" font-family="sans-serif" font-size="13" lengthAdjust="spacing" textLength="80" x="394" y="525.0545">discovered via</text></g><!--link Request to Contract--><g id="link_Request_Contract"><path d="M524,473.3294 C524,420.8994 524,279.6094 524,279.6094 C524,279.6094 583.89,279.6094 638.97,279.6094 " fill="none" id="Request-to-Contract" style="stroke:#181818;stroke-width:1.0;"/><polygon fill="#181818" points="644.97,279.6094,635.97,275.6094,639.97,279.6094,635.97,283.6094,644.97,279.6094" style="stroke:#181818;stroke-width:1.0;"/><text fill="#000000" font-family="sans-serif" font-size="13" lengthAdjust="spacing" textLength="46" x="477" y="330.4845">leads to</text></g><!--link Contract to Policy--><g id="link_Contract_Policy"><path d="M792.08,285.9394 C843.13,285.9394 902,285.9394 902,285.9394 C902,285.9394 902,306.8894 902,326.2594 " fill="none" id="Contract-to-Policy" style="stroke:#181818;stroke-width:1.0;"/><polygon fill="#181818" points="902,332.2594,906,323.2594,902,327.2594,898,323.2594,902,332.2594" style="stroke:#181818;stroke-width:1.0;"/><text fill="#000000" font-family="sans-serif" font-size="13" lengthAdjust="spacing" textLength="69" x="800.2" y="300.4345">governed by</text></g><!--link Contract to UsageEvent--><g id="link_Contract_UsageEvent"><path d="M788,260.3994 C788,218.5694 788,122.9394 788,122.9394 C788,122.9394 815.37,122.9394 846,122.9394 " fill="none" id="Contract-to-UsageEvent" style="stroke:#181818;stroke-width:1.0;"/><polygon fill="#181818" points="852,122.9394,843,118.9394,847,122.9394,843,126.9394,852,122.9394" style="stroke:#181818;stroke-width:1.0;"/><text fill="#000000" font-family="sans-serif" font-size="13" lengthAdjust="spacing" textLength="91" x="696" y="174.1645">enables access</text></g><!--link UsageEvent to UsageRecord--><g id="link_UsageEvent_UsageRecord"><path d="M946,135.6994 C946,158.1194 946,192.2794 946,192.2794 C946,192.2794 975.92,192.2794 1009.17,192.2794 " fill="none" id="UsageEvent-to-UsageRecord" style="stroke:#181818;stroke-width:1.0;"/><polygon fill="#181818" points="1015.17,192.2794,1006.17,188.2794,1010.17,192.2794,1006.17,196.2794,1015.17,192.2794" style="stroke:#181818;stroke-width:1.0;"/><text fill="#000000" font-family="sans-serif" font-size="13" lengthAdjust="spacing" textLength="68" x="953.3" y="188.7745">captured as</text></g><!--link UsageRecord to Transaction--><g id="link_UsageRecord_Transaction"><path d="M1125.75,198.6094 C1145.47,198.6094 1161.99,198.6094 1182.95,198.6094 " fill="none" id="UsageRecord-to-Transaction" style="stroke:#181818;stroke-width:1.0;"/><polygon fill="#181818" points="1188.95,198.6094,1179.95,194.6094,1183.95,198.6094,1179.95,202.6094,1188.95,198.6094" style="stroke:#181818;stroke-width:1.0;"/><text fill="#000000" font-family="sans-serif" font-size="13" lengthAdjust="spacing" textLength="89" x="1067.35" y="213.1045">aggregated into</text></g><!--link Transaction to Invoice--><g id="link_Transaction_Invoice"><path d="M1334.17,198.6094 C1373.42,198.6094 1413.92,198.6094 1444.25,198.6094 " fill="none" id="Transaction-to-Invoice" style="stroke:#181818;stroke-width:1.0;"/><polygon fill="#181818" points="1450.25,198.6094,1441.25,194.6094,1445.25,198.6094,1441.25,202.6094,1450.25,198.6094" style="stroke:#181818;stroke-width:1.0;"/><text fill="#000000" font-family="sans-serif" font-size="13" lengthAdjust="spacing" textLength="83" x="1308.21" y="213.1045">used for billing</text></g><!--link Invoice to Settlement--><g id="link_Invoice_Settlement"><path d="M1494,179.3994 C1494,165.5394 1494,149.2794 1494,149.2794 C1494,149.2794 1565.05,149.2794 1624.79,149.2794 " fill="none" id="Invoice-to-Settlement" style="stroke:#181818;stroke-width:1.0;"/><polygon fill="#181818" points="1630.79,149.2794,1621.79,145.2794,1625.79,149.2794,1621.79,153.2794,1630.79,149.2794" style="stroke:#181818;stroke-width:1.0;"/><text fill="#000000" font-family="sans-serif" font-size="13" lengthAdjust="spacing" textLength="53" x="1493.33" y="163.7745">results in</text></g><!--link Offer to Pricing--><g id="link_Offer_Pricing"><path d="M204.01,544.1094 C241.16,544.1094 305,544.1094 305,544.1094 C305,544.1094 305,482.6794 305,448.6994 " fill="none" id="Offer-to-Pricing" style="stroke:#181818;stroke-width:1.0;"/><polygon fill="#181818" points="305,442.6994,301,451.6994,305,447.6994,309,451.6994,305,442.6994" style="stroke:#181818;stroke-width:1.0;"/><text fill="#000000" font-family="sans-serif" font-size="13" lengthAdjust="spacing" textLength="83" x="221" y="558.3945">defines pricing</text></g><!--link Request to Audit--><g id="link_Request_Audit"><path d="M585.08,492.6094 C796.32,492.6094 1483,492.6094 1483,492.6094 C1483,492.6094 1483,357.3194 1483,304.8894 " fill="none" id="Request-to-Audit" style="stroke:#181818;stroke-width:1.0;"/><polygon fill="#181818" points="1483,298.8894,1479,307.8894,1483,303.8894,1487,307.8894,1483,298.8894" style="stroke:#181818;stroke-width:1.0;"/></g><!--link Contract to Audit--><g id="link_Contract_Audit"><path d="M792.1,273.2794 C950.67,273.2794 1314.08,273.2794 1436.38,273.2794 " fill="none" id="Contract-to-Audit" style="stroke:#181818;stroke-width:1.0;"/><polygon fill="#181818" points="1442.38,273.2794,1433.38,269.2794,1437.38,273.2794,1433.38,277.2794,1442.38,273.2794" style="stroke:#181818;stroke-width:1.0;"/></g><!--link Transaction to Audit--><g id="link_Transaction_Audit"><path d="M1334.02,208.1094 C1386.04,208.1094 1447,208.1094 1447,208.1094 C1447,208.1094 1447,233.2694 1447,254.4494 " fill="none" id="Transaction-to-Audit" style="stroke:#181818;stroke-width:1.0;"/><polygon fill="#181818" points="1447,260.4494,1451,251.4494,1447,255.4494,1443,251.4494,1447,260.4494" style="stroke:#181818;stroke-width:1.0;"/></g><!--link Provider to Offer--><g id="link_Provider_Offer"><path d="M59.19,551.6094 C85.6,551.6094 119.79,551.6094 145.97,551.6094 " fill="none" id="Provider-to-Offer" style="stroke:#181818;stroke-width:1.0;"/><polygon fill="#181818" points="151.97,551.6094,142.97,547.6094,146.97,551.6094,142.97,555.6094,151.97,551.6094" style="stroke:#181818;stroke-width:1.0;"/><text fill="#000000" font-family="sans-serif" font-size="13" lengthAdjust="spacing" textLength="43" x="61.58" y="566.1045">creates</text></g><!--link Consumer to Request--><g id="link_Consumer_Request"><path d="M382.73,488.9394 C405.27,488.9394 429.91,488.9394 456.89,488.9394 " fill="none" id="Consumer-to-Request" style="stroke:#181818;stroke-width:1.0;"/><polygon fill="#181818" points="462.89,488.9394,453.89,484.9394,457.89,488.9394,453.89,492.9394,462.89,488.9394" style="stroke:#181818;stroke-width:1.0;"/><text fill="#000000" font-family="sans-serif" font-size="13" lengthAdjust="spacing" textLength="45" x="376.81" y="485.4345">initiates</text></g><!--link Marketplace to Catalog--><g id="link_Marketplace_Catalog"><path d="M237.36,411.6094 C253.69,411.6094 267,411.6094 267,411.6094 C267,411.6094 267,609.6094 267,609.6094 C267,609.6094 274.7,609.6094 290.96,609.6094 " fill="none" id="Marketplace-to-Catalog" style="stroke:#181818;stroke-width:1.0;"/><polygon fill="#181818" points="296.96,609.6094,287.96,605.6094,291.96,609.6094,287.96,613.6094,296.96,609.6094" style="stroke:#181818;stroke-width:1.0;"/></g><!--link Marketplace to Contract--><g id="link_Marketplace_Contract"><path d="M237.18,363.6094 C377.56,363.6094 719,363.6094 719,363.6094 C719,363.6094 719,329.4494 719,304.6694 " fill="none" id="Marketplace-to-Contract" style="stroke:#181818;stroke-width:1.0;"/><polygon fill="#181818" points="719,298.6694,715,307.6694,719,303.6694,723,307.6694,719,298.6694" style="stroke:#181818;stroke-width:1.0;"/></g><!--link Marketplace to Policy--><g id="link_Marketplace_Policy"><path d="M237.25,367.1094 C385,367.1094 759.62,367.1094 867.26,367.1094 " fill="none" id="Marketplace-to-Policy" style="stroke:#181818;stroke-width:1.0;"/><polygon fill="#181818" points="873.26,367.1094,864.26,363.1094,868.26,367.1094,864.26,371.1094,873.26,367.1094" style="stroke:#181818;stroke-width:1.0;"/></g><!--link Marketplace to Pricing--><g id="link_Marketplace_Pricing"><path d="M237.19,408.1094 C256.72,408.1094 272.31,408.1094 291.32,408.1094 " fill="none" id="Marketplace-to-Pricing" style="stroke:#181818;stroke-width:1.0;"/><polygon fill="#181818" points="297.32,408.1094,288.32,404.1094,292.32,408.1094,288.32,412.1094,297.32,408.1094" style="stroke:#181818;stroke-width:1.0;"/></g><!--link Connector to UsageEvent--><g id="link_Connector_UsageEvent"><path d="M761.52,110.2794 C788.54,110.2794 817.49,110.2794 845.77,110.2794 " fill="none" id="Connector-to-UsageEvent" style="stroke:#181818;stroke-width:1.0;"/><polygon fill="#181818" points="851.77,110.2794,842.77,106.2794,846.77,110.2794,842.77,114.2794,851.77,110.2794" style="stroke:#181818;stroke-width:1.0;"/></g><!--link Metering to UsageRecord--><g id="link_Metering_UsageRecord"><path d="M939.81,204.9394 C962.03,204.9394 984.52,204.9394 1009.22,204.9394 " fill="none" id="Metering-to-UsageRecord" style="stroke:#181818;stroke-width:1.0;"/><polygon fill="#181818" points="1015.22,204.9394,1006.22,200.9394,1010.22,204.9394,1006.22,208.9394,1015.22,204.9394" style="stroke:#181818;stroke-width:1.0;"/></g><!--link Clearing to Transaction--><g id="link_Clearing_Transaction"><path d="M1129.11,73.3594 C1163,73.3594 1199,73.3594 1199,73.3594 C1199,73.3594 1199,138.5494 1199,173.5894 " fill="none" id="Clearing-to-Transaction" style="stroke:#181818;stroke-width:1.0;"/><polygon fill="#181818" points="1199,179.5894,1203,170.5894,1199,174.5894,1195,170.5894,1199,179.5894" style="stroke:#181818;stroke-width:1.0;"/></g><!--link Billing to Invoice--><g id="link_Billing_Invoice"><path d="M1315.15,88.3594 C1339.95,88.3594 1364,88.3594 1364,88.3594 C1364,88.3594 1364,189.1094 1364,189.1094 C1364,189.1094 1409.34,189.1094 1444.43,189.1094 " fill="none" id="Billing-to-Invoice" style="stroke:#181818;stroke-width:1.0;"/><polygon fill="#181818" points="1450.43,189.1094,1441.43,185.1094,1445.43,189.1094,1441.43,193.1094,1450.43,189.1094" style="stroke:#181818;stroke-width:1.0;"/></g><!--link Billing to Settlement--><g id="link_Billing_Settlement"><path d="M1262,118.1194 C1262,132.4194 1262,146.9394 1262,146.9394 C1262,146.9394 1501.45,146.9394 1624.66,146.9394 " fill="none" id="Billing-to-Settlement" style="stroke:#181818;stroke-width:1.0;"/><polygon fill="#181818" points="1630.66,146.9394,1621.66,142.9394,1625.66,146.9394,1621.66,150.9394,1630.66,146.9394" style="stroke:#181818;stroke-width:1.0;"/></g><!--link GMN45 to Offer--><g id="link_GMN45_Offer"><path d="M178,497.8494 C178,507.7594 178,521.4694 178,532.5594 " fill="none" id="GMN45-Offer" style="stroke:#181818;stroke-width:1.0;stroke-dasharray:7.0,7.0;"/></g><!--link GMN48 to Contract--><g id="link_GMN48_Contract"><path d="M719,225.8494 C719,235.7594 719,249.4694 719,260.5594 " fill="none" id="GMN48-Contract" style="stroke:#181818;stroke-width:1.0;stroke-dasharray:7.0,7.0;"/></g><!--link GMN51 to UsageRecord--><g id="link_GMN51_UsageRecord"><path d="M1071,144.8494 C1071,154.7594 1071,168.4694 1071,179.5594 " fill="none" id="GMN51-UsageRecord" style="stroke:#181818;stroke-width:1.0;stroke-dasharray:7.0,7.0;"/></g><!--link GMN54 to Invoice--><g id="link_GMN54_Invoice"><path d="M1472,144.8494 C1472,154.7594 1472,168.4694 1472,179.5594 " fill="none" id="GMN54-Invoice" style="stroke:#181818;stroke-width:1.0;stroke-dasharray:7.0,7.0;"/></g><!--SRC=[ZLLBRjim4Dtp58CksWHeqAA_XO4MS1obSMjRXgMW2D0DBOrb8hBeYfG1Nw07w15xaexuSIYb4UADoNcFGywycP4MkaI8hf8vN77D8QrvXdmjIg6FS1PlDbZ3tzz_O28hJP0scrl52pIhQNMG8iDpnjIzgFQyvZjG-aWkbQv5ffjT6I2bg50VzmYorbl9Ijneq19gKMmrvAB6J0jPCVOAFl_lH_P9l8hWUXR_WFZoMpH9aoUvhFN6guAUyiA4yGAu0hCAeGa5NSe28WhlQ2ZE4fB6MOPAmGf_DQYqORbrnvLFqRYe4NTOMQOtXzIbB4LchxFB4BJPZGxUWTcRxMFM2ZDPvmyqkmzv96Ybk4bio0xC8TlfQIXk7S89QYgNDhJGruDrI3gZsYgQZTDfl4Xkfii1xMpTNLnyyMh02FRDkXHgYpdpjXPtEX2U2vN90zQOmq5mvW7Zn2ipWX9vhgZesCdM4gm811UjXufSh8zTneC8nCAAhqjKm4rTi00xKMrwY9lnlMxQHt57T4ZB3BKP0I-eRWgkYIigUc68jcod1p4RHPoDh87wb7ggO1vgQO568wXHDQLMv718ckHskOnNwNJn5Q9PD8yMp-oh9RKuNGzpcMDfgzbQ0W4zXmJ23VM_WhtZT3gioOM6cIoC5xFhA6Wj7KMigPyaQns8TJn9urK2Ro2vIz9eJXMPBAaUfvVJsJIzUpfikeCIJY7BWyZTDF4R3zBxLBDpeDzqufpp-XxrlgGX-xCwkvvSl7tt6jg_3-VcK83tHak5xHtkqFjpVuKrTwv0ZJNbrr4_EiVE6Z8lRVL0SbGQTux_oV8Trda4zKxh0cua5Q1zW3CD9RoRO9XD5zy7gikdr8XfguXwg4Pg2yLyIdkTBogXXI6m87_X-7XizqEv3xXn_CZiQ_QKyjvKeAjTXlipWCxunFLwdZ6lGD3U7Tlp9kiYJgE1b5PI8qsyFSYD-_vTkL5vXEMMAsHOvT2okjnJZloYVTNGWJ1e-taQOlVZVHbEhjx1Vm00]--></g></svg>